<svg xmlns="http://www.w3.org/2000/svg" xmlns:xlink="http://www.w3.org/1999/xlink" viewBox="0 0 156.5 156.5"><path fill-rule="evenodd" clip-rule="evenodd" fill="#153951" d="M79.7 15.6c34.2 0 62 27.8 62 62s-27.8 62-62 62-62-27.8-62-62 27.7-62 62-62"/><path fill-rule="evenodd" clip-rule="evenodd" fill="#3784BA" d="M127.1 117.6c-11.4 13.5-28.4 22-47.4 22s-36-8.5-47.4-22h94.8"/><path fill-rule="evenodd" clip-rule="evenodd" fill="#26648E" d="M58.2 119.3H57.9c-.3.3-.4.6-.4 1v.1c0 .8.6 1.5 1.4 1.5H68.6c.3.3.4.6.4 1v.1c0 .8-.6 1.5-1.4 1.5H66.2c-.3.3-.4.6-.4 1v.1c0 .8.6 1.5 1.4 1.5h43.7c.8 0 1.4-.7 1.4-1.5v-.1c0-.4-.2-.7-.4-1h-3.5c-.8 0-1.4-.7-1.4-1.5v-.1c0-.4.2-.7.4-1h5.9c.8 0 1.4-.7 1.4-1.5v-.1c0-.4-.2-.7-.4-1H58.2"/><path fill-rule="evenodd" clip-rule="evenodd" fill="#4B99C9" d="M47.5 125.2h.4c.3.3.4.6.4 1v.1c0 .8-.6 1.5-1.4 1.5H43c-1.3-1-2.7-2-3.9-3h8.4zM80.2 133.2l.1-.1h27.3c-2.2 1.1-4.5 2.1-6.8 3H81.3c-.8 0-1.4-.7-1.4-1.5v-.1c-.2-.7 0-1.1.3-1.3zM51.4 119.1H51.7c.3.3.4.6.4 1v.1c0 .8-.6 1.5-1.4 1.5H36.5c-1-1-2-2-2.9-3h17.8z"/><path fill="#E39E4A" d="M74.6 102.2h4.8v11.9h-4.8z"/><path fill="#FFB051" d="M54.9 104c-1.3-.9-1.7-2.7-.8-4l42.4-62.5c.9-1.3 2.7-1.7 4-.8 1.3.9 1.7 2.7.8 4L59 103.2c-.9 1.4-2.7 1.7-4.1.8"/><path fill="#FFB051" d="M82.6 38.1c-.8 1.2-.1 2.7 1.2 3.1 13.8 3.2 24 15.9 23.2 30.8-.8 15.3-13.2 27.6-28.5 28.4-10.7.5-20.2-4.6-25.9-12.6-.9-1.3-2.9-1.3-3.8 0-.6.8-.6 1.9 0 2.7 6.4 8.9 16.8 14.6 28.6 14.5 18.7-.2 34-15.5 34.2-34.2.2-16.2-10.8-30-25.8-33.9-1.2-.4-2.5.1-3.2 1.2"/><path fill="#EDA65A" d="M77.2 109.7c-.4 0-1.1.2-1.5.3 4 .6 7.3 3.3 7.3 8.1h2.4c0-4.8-3.7-8.4-8.2-8.4z"/><path fill="#E39E4A" d="M76 110c-4 .6-7 3.3-7 8.1h14c0-4.8-3-7.5-7-8.1z"/><defs><path id="a" d="M103.5 70.1c0 14.6-11.8 26.4-26.4 26.4S50.7 84.7 50.7 70.1c0-14.6 11.8-26.4 26.4-26.4s26.4 11.9 26.4 26.4"/></defs><clipPath id="b"><use xlink:href="#a" overflow="visible"/></clipPath><path clip-path="url(#b)" fill="#3AB2CF" d="M71.8 81.9l-18.1 3.2 6.3 9.1 14 2 34.9-6.2-2.7-12-34.4 3.9"/><path clip-path="url(#b)" fill="#3AB2CF" d="M100.5 65.9c0 12.7-10.3 23-23 23s-23-10.3-23-23 10.3-23 23-23 23 10.3 23 23"/><path clip-path="url(#b)" fill="#349BB5" d="M89.7 77.9l-4-6.2v-2.5l.5-4.7 7.8-3.7 3.3-3.7h11.3l5.6 17.6-3.2 5.6-18.8-1.7-2.5-.7M63.7 53.7l-16.5 1.8-1.9 21.8 5.5 7.5H64l3-8.5-7.7-3.1 1-3.6-1.4-3.5 5.1-5.2-.3-7.2"/><path clip-path="url(#b)" fill="#3AB2CF" d="M77 52.9H52.2c-.8 0-1.4-.6-1.4-1.4v-1.6c0-.8.6-1.4 1.4-1.4H77c.8 0 1.4.6 1.4 1.4v1.6c0 .8-.7 1.4-1.4 1.4"/><path clip-path="url(#b)" fill="#E6E6E6" d="M72.1 48.5H56c-.8 0-1.4-.6-1.4-1.4v-1.6c0-.8.6-1.4 1.4-1.4h16c.8 0 1.4.6 1.4 1.4v1.6c0 .8-.6 1.4-1.3 1.4"/><path clip-path="url(#b)" fill="#3AB2CF" d="M77.6 60.2H62.9c-1.1 0-2-.9-2-2v-.3c0-1.1.9-2 2-2h14.7c1.1 0 2 .9 2 2v.3c.1 1.1-.8 2-2 2M67.3 67.3h-9c-.9 0-1.6-.7-1.6-1.6v-.2c0-.9.7-1.6 1.6-1.6h9c.9 0 1.6.7 1.6 1.6v.2c-.1.9-.8 1.6-1.6 1.6M67.3 74.6h-9c-.9 0-1.6-.7-1.6-1.6v-.2c0-.9.7-1.6 1.6-1.6h9c.9 0 1.6.7 1.6 1.6v.2c-.1.9-.8 1.6-1.6 1.6M71.5 81.9h-9c-.9 0-1.6-.7-1.6-1.6v-.2c0-.9.7-1.6 1.6-1.6h9c.9 0 1.6.7 1.6 1.6v.2c-.1.9-.8 1.6-1.6 1.6M89.7 76.8h-9c-.9 0-1.6-.7-1.6-1.6V75c0-.9.7-1.6 1.6-1.6h9c.9 0 1.6.7 1.6 1.6v.2c0 .9-.7 1.6-1.6 1.6zM86.1 69.9H74.5c-1.1 0-2-.9-2-2v-.3c0-1.1.9-2 2-2h11.6c1.1 0 2 .9 2 2v.3c0 1.1-.9 2-2 2zM95.8 62.3h-9c-.9 0-1.6-.7-1.6-1.6v-.2c0-.9.7-1.6 1.6-1.6h9c.9 0 1.6.7 1.6 1.6v.2c-.1.9-.7 1.6-1.6 1.6M99.7 54.6H77c-.6 0-1-.5-1-1v-1.2c0-.6.5-1 1-1h22.7c.6 0 1 .5 1 1v1.2c0 .5-.4 1-1 1"/><path clip-path="url(#b)" fill="#349BB5" d="M65.6 55.8H52.2c-.8 0-1.4-.6-1.4-1.4v-.2c0-.8.6-1.4 1.4-1.4h13.4c.8 0 1.4.6 1.4 1.4v.2c0 .8-.6 1.4-1.4 1.4M69.5 63.9H52.3c-1 0-1.8-.8-1.8-1.8V62c0-1 .8-1.8 1.8-1.8h17.1c1 0 1.8.8 1.8 1.8v.2c.1 1-.7 1.7-1.7 1.7"/><path clip-path="url(#b)" fill="#CCC" d="M98.6 51.2H81.5c-1 0-1.8-.8-1.8-1.8v-.2c0-1 .8-1.8 1.8-1.8h17.1c1 0 1.8.8 1.8 1.8v.2c0 1-.8 1.8-1.8 1.8"/><path clip-path="url(#b)" fill="#349BB5" d="M110.7 59H90.8c-1.2 0-2.2-1-2.2-2.2 0-1.2 1-2.2 2.2-2.2h19.9c1.2 0 2.2 1 2.2 2.2 0 1.2-1 2.2-2.2 2.2M49 71.2h13.1c1 0 1.9-.8 1.9-1.9v-.2c0-1-.8-1.9-1.9-1.9H49c-1 0-1.9.8-1.9 1.9v.2c.1 1.1.9 1.9 1.9 1.9M67.3 78.5h-16c-1 0-1.9-.8-1.9-1.9v-.2c0-1 .8-1.9 1.9-1.9h16c1 0 1.9.8 1.9 1.9v.2c0 1.1-.8 1.9-1.9 1.9"/><path clip-path="url(#b)" fill="#E6E6E6" d="M91.9 90h-16c-1 0-1.9-.8-1.9-1.9v-.2c0-1 .8-1.9 1.9-1.9h16c1 0 1.9.8 1.9 1.9v.2c0 1-.8 1.9-1.9 1.9zM84.6 97.3H67.3c-.7 0-1.3-.6-1.3-1.3v-1.5c0-.7.6-1.3 1.3-1.3h17.3c.7 0 1.3.6 1.3 1.3V96c-.1.7-.6 1.3-1.3 1.3"/><path clip-path="url(#b)" fill="#349BB5" d="M69.4 85.8h-16c-1 0-1.9-.8-1.9-1.9v-.2c0-1 .8-1.9 1.9-1.9h16c1 0 1.9.8 1.9 1.9v.3c0 1-.9 1.8-1.9 1.8M107 65.6H80.7c-.9 0-1.6-.7-1.6-1.6v-.2c0-.9.7-1.6 1.6-1.6H107c.9 0 1.6.7 1.6 1.6v.2c0 .9-.7 1.6-1.6 1.6M105.5 73.5H83.1c-.9 0-1.7-.8-1.7-1.7v-.2c0-.9.8-1.7 1.7-1.7h22.4c.9 0 1.7.8 1.7 1.7v.2c0 .9-.8 1.7-1.7 1.7M106.7 80.8H85.5c-1 0-1.9-.8-1.9-1.9v-.2c0-1 .8-1.9 1.9-1.9h21.2c1 0 1.9.8 1.9 1.9v.2c0 1.1-.9 1.9-1.9 1.9"/><path clip-path="url(#b)" fill="#E6E6E6" d="M76 94.9l3.1-6L90.5 90l5.6 4.9-7.1 4.6"/><path clip-path="url(#b)" fill="#3AB2CF" d="M96.3 93.3h-9c-.9 0-1.6-.7-1.6-1.6v-.2c0-.9.7-1.6 1.6-1.6h9c.9 0 1.6.7 1.6 1.6v.2c-.1.9-.8 1.6-1.6 1.6zM79.4 93.3h-9c-.9 0-1.6-.7-1.6-1.6v-.2c0-.9.7-1.6 1.6-1.6h9c.9 0 1.6.7 1.6 1.6v.2c0 .9-.7 1.6-1.6 1.6"/><path fill="#13374E" d="M65.4 93.8c.1 0 .2.1.3.1-.1-.1-.2-.1-.3-.1M73.5 44c-2.1.3-4.3.8-6.4 1.7-13.5 5.4-20 20.8-14.6 34.2 1.8 4.4 4.5 8 8 10.7-1.7-1.4-3.2-3-4.6-4.8-.9-1.2-1.7-2.6-2.4-4-.5-1.1-1-2.2-1.4-3.3-.4-1.3-.8-2.6-1-4-.2-1.1-.3-2.2-.4-3.3v-1.1c0-1 .1-1.9.2-2.8.1-1.2.3-2.4.6-3.5.3-1.2.7-2.4 1.2-3.5.6-1.5 1.4-3 2.3-4.4.7-1 1.4-2 2.2-2.9 1.4-1.6 3-3.1 4.8-4.4h.5-.5c3-2.1 6.5-3.6 10.3-4.3.4-.2.8-.2 1.2-.3"/><path fill="#E5A14E" d="M60.5 90.6c1.5 1.3 3.2 2.3 4.9 3.2-1.8-.9-3.4-2-4.9-3.2"/><path fill="#34A3BF" d="M62.9 85.8h-7c1.3 1.8 2.8 3.4 4.6 4.8 1.5 1.2 3.1 2.3 4.9 3.2.1 0 .2.1.3.1.2.1.3.2.5.2.2-.5.6-.8 1.2-.8h2.7s-.1 0-.1-.1c-.4-.1-.7-.3-.9-.6-2.4-1.8-4.5-4.1-6.2-6.8M66.7 52.9h-1.1c.3 0 .6.1.8.3l.3-.3m10.2-9.1c-1.1 0-2.3.1-3.4.2-.4.1-.8.1-1.2.2.7.1 1.2.7 1.2 1.4v1.6c0 .8-.6 1.4-1.4 1.4h-9.6 10.1c.9-.5 1.7-.9 2.7-1.2 3.2-1.3 6.5-1.9 9.8-1.9h.9c-2.9-1.2-6-1.7-9.1-1.7"/><path fill="#2F8FA7" d="M59.7 78.5h-7.6c.4 1.1.8 2.3 1.4 3.3h7.3c0-.1-.1-.2-.1-.3-.4-1-.7-2-1-3m-.9-7.3h-8c0 1.1.2 2.2.4 3.3H58.3c-.9 0-1.6-.7-1.6-1.6v-.2c0-.9.7-1.6 1.6-1.6h.5v.1m-7.3-7.5c-.3 1.2-.5 2.3-.6 3.5h7.4c-.9 0-1.6-.7-1.6-1.6v-.2c0-.9.7-1.6 1.6-1.6H60h-7.6c-.4.1-.6.1-.9-.1m12.3-7.9h-8.9c-.9 1.4-1.6 2.8-2.3 4.4h8.8c.1-.2.1-.3.2-.4-.5-.4-.8-1-.8-1.6v-.3c0-1.1.9-2 2-2h1"/><path fill="#34A3BF" d="M72.6 48.5H62c-1.8 1.3-3.4 2.7-4.8 4.4h9.6c1.6-1.7 3.6-3.2 5.8-4.4"/><path fill="#CFD2D3" d="M72.2 44.2c-3.8.7-7.3 2.2-10.3 4.3H72c.8 0 1.4-.6 1.4-1.4v-1.6c0-.6-.5-1.2-1.2-1.3"/><path fill="#34A3BF" d="M64.1 55.8h-1.2c-1.1 0-2 .9-2 2v.3c0 .6.3 1.2.8 1.6.7-1.3 1.5-2.6 2.4-3.9M60 64h-1.7c-.9 0-1.6.7-1.6 1.6v.2c0 .9.7 1.6 1.6 1.6h.9c.2-1.3.4-2.4.8-3.4M58.8 71.2h-.5c-.9 0-1.6.7-1.6 1.6v.2c0 .9.7 1.6 1.6 1.6h.7c-.2-1.1-.2-2.2-.2-3.4"/><path fill="#2F8FA7" d="M65.6 52.9h-8.5c-.8.9-1.5 1.9-2.2 2.9H64.1c.7-.9 1.5-1.8 2.3-2.7-.2-.1-.5-.2-.8-.2M61.4 60.2h-8.8c-.5 1.1-.9 2.3-1.2 3.5.2.1.5.2.8.2H60c.4-1.2.9-2.5 1.4-3.7M59.2 67.3h-8.3c-.1.9-.2 1.9-.2 2.8v1.1h8c.1-1.3.2-2.6.5-3.9M58.9 74.6H51.1c.2 1.4.6 2.7 1 4h7.6c-.4-1.4-.6-2.7-.8-4"/><path fill="#CFD2D3" d="M70.1 93.3h-2.7c-.5 0-1 .3-1.2.8 3.1 1.4 6.4 2.2 9.9 2.3-2.2-.8-4.2-1.8-6-3.1"/><path fill="#2F8FA7" d="M60.8 81.9h-7.3c.7 1.4 1.5 2.7 2.4 4h7c-.8-1.3-1.5-2.6-2.1-4"/><path fill="#34A3BF" d="M69.1 92.6c.2.3.5.5.9.6l-.9-.6"/><path fill="#46B7D2" d="M98.6 80.8H95c-.3.4-.7.8-1 1.1-.2.5-.3 1-.5 1.4-.2.6-.3 1-.4 1.3-.1.4-.1.6-.1.6s.2-.1.5-.2c.3-.2.7-.4 1.2-.7.5-.3 1.1-.8 1.8-1.3.3-.3.7-.6 1-.9.3-.4.7-.8 1.1-1.3 0 .1 0 .1 0 0"/><path fill="#46B7D2" d="M95 80.8h-.6c-.1.2-.1.4-.2.5-.1.2-.1.4-.2.6.3-.3.7-.7 1-1.1"/><path fill="#40A1B9" d="M102.7 73.5h-6.5c-.1.9-.3 1.7-.5 2.5 0 .3-.1.5-.2.8h5.8c.4-.7.7-1.5 1-2.3.2-.3.3-.7.4-1m.4-7.9h-7.3c.1.4.2.8.2 1.1.1 1 .3 2.1.3 3.1h6.9c.2-1.3.1-2.8-.1-4.2m-2.6-6.6h-4.9.2c.9 0 1.6.7 1.6 1.6v.2c0 .9-.7 1.6-1.6 1.6h6.4c-.1-.4-.3-.8-.5-1.2-.4-.8-.7-1.6-1.2-2.2"/><path fill="#46B7D2" d="M95.8 59h-2.6c.3.6.6 1.1.8 1.7l.6 1.5v.1h1c.9 0 1.6-.7 1.6-1.6v-.2c.1-.8-.5-1.5-1.4-1.5M92 51.2h-3.5s0 .1.1.1c.5.8 1.3 1.9 2.1 3.2H96.9l-.1-.1c-.9-.8-1.9-1.5-2.7-2.1-.7-.4-1.4-.8-2.1-1.1"/><path fill="#CFCFCF" d="M87.5 49.7s.4.5 1 1.5H92c-1-.5-1.9-.8-2.6-1.1-1.1-.3-1.9-.4-1.9-.4"/><path fill="#40A1B9" d="M96.9 54.6h-6.1-.1c.2.2.3.5.5.7.7 1.1 1.4 2.4 2.1 3.7h7.3c-.3-.6-.7-1.1-1.1-1.6-.8-1.1-1.7-2-2.6-2.8M102.2 62.3h-7.4c.1.2.2.4.2.6.1.3.2.5.3.8.2.6.4 1.3.5 1.9h7.3v-.1c-.3-1.1-.5-2.2-.9-3.2M103.3 69.9h-6.9c0 1 0 2.1-.1 3.1 0 .2 0 .3-.1.5h6.5c.1-.4.2-.7.3-1.1.1-.7.3-1.5.3-2.2v-.3M101.4 76.8h-5.8c-.1.2-.1.4-.2.7-.1.5-.2.9-.4 1.4-.2.7-.4 1.4-.6 2h4.2c.3-.4.6-.8 1-1.2.3-.5.7-1 1-1.5.3-.5.5-.9.8-1.4"/><path fill="#112E41" d="M114.8 79.2l-5.4 21.2 5.4-21.2M98.7 97.4l3.2 8.2-3.2-8.2m-3.3-8.3l1.5 3.7-1.5-3.7"/><path fill="#CC8D41" d="M96.9 92.9l1.8 4.5-1.8-4.5"/><path fill="#2E8EA6" d="M93.9 85.3l1.5 3.8-1.5-3.8"/><path fill="#112E41" d="M107.7 86.4l-1.7 20.7 1.7-20.7"/><path fill="#CC8D41" d="M107.8 85.3l-.1 1.1.1-1.1"/><path fill="#112E41" d="M113.7 95.9h-2.5l-1.8 21.7h2.4l1.9-21.7"/><path fill="#2C6A95" d="M111.8 117.6h-2.4l-.2 1.7h2.5l.1-1.7"/><path fill="#1E5072" d="M111.7 119.3h-2.5v.4h2.4l.1-.4"/><path fill="#112E41" d="M114 95.9h-.4l-1.9 21.7h2l1.5-20.1c.2-.8-.4-1.6-1.2-1.6"/><path fill="#2C6A95" d="M113.8 117.6h-2l-.1 1.7h1.6c.3-.3.5-.7.5-1.1v-.6"/><path fill="#1E5072" d="M113.3 119.3h-1.6v.3h.8c.3.1.5-.1.8-.3"/><path fill="#D8DCDB" d="M112.1 101.5l5.4-21.2c.2-.7-.2-1.3-.9-1.5-.7-.2-1.3.2-1.5.9l-5.4 21.2c-.2.7.2 1.3.9 1.5.7.2 1.4-.2 1.5-.9M104.6 106l-8-20.3c-.2-.6-1-.9-1.6-.7-.6.2-.9 1-.7 1.6l8 20.3c.2.6 1 .9 1.6.7.7-.3 1-1 .7-1.6"/><path fill="#C6C6C6" d="M108.8 108l1.8-21.8c.1-.7-.4-1.3-1.1-1.3-.7-.1-1.3.4-1.3 1.1l-1.8 21.8c-.1.7.4 1.3 1.1 1.3.7 0 1.3-.5 1.3-1.1"/><path fill="#F9886C" d="M96 96.7c-.8 0-1.4.8-1.3 1.6l2.2 20.8c.1.7.6 1.4 1.3 1.4h12.6l2.1-23.8H96z"/><path fill="#F9886C" d="M112.8 96.7l-2 23.8h2.4l2.1-23.8"/><path fill="#F9886C" d="M115.6 96.7h-.4l-2.1 23.8h.8c.7 0 1.3-.7 1.3-1.4l1.6-20.7c.2-.9-.4-1.7-1.2-1.7z"/><path fill="#DE7B63" d="M112.8 96.7l-2 23.8h2.4l2.1-23.8"/><path fill="#CA7059" d="M115.6 96.7h-.4l-2.1 23.8h.8c.7 0 1.3-.7 1.3-1.4l1.6-20.7c.2-.9-.4-1.7-1.2-1.7z"/></svg>