<svg xmlns="http://www.w3.org/2000/svg" xmlns:xlink="http://www.w3.org/1999/xlink" viewBox="0 0 354.3 354.3"><defs><circle id="a" cx="180.4" cy="179.1" r="131.6"/></defs><clipPath id="b"><use xlink:href="#a" overflow="visible"/></clipPath><g clip-path="url(#b)"><circle fill="#12324C" cx="180.4" cy="179.1" r="131.6"/><circle fill="none" cx="180.4" cy="180.3" r="131.6"/><path fill="#8586C5" d="M232.1 116.8l-5.1-13.6H104.8c-6.7 0-12.1 5.4-12.1 12.1v191c0 6.7 5.4 12.1 12.1 12.1H258c6.7 0 12.1-5.4 12.1-12.1V152.4l-27.5-15.8-10.5-19.8z"/><path fill="#797AB0" d="M243.6 119.7l-7.7 25.2 34.2 19.7v-18.4"/><path fill="#9B9ECE" d="M242.2 146.3c-8.3 0-15.1-6.7-15.1-15.1v-28l43.1 43.1h-28z"/><path fill="#DFDFDF" d="M117 142.1h-4.3c-.7 0-1.2-.6-1.2-1.2 0-.7.6-1.2 1.2-1.2h4.3c.7 0 1.2.6 1.2 1.2.1.6-.5 1.2-1.2 1.2zM117 150.2h-4.3c-.7 0-1.2-.6-1.2-1.2 0-.7.6-1.2 1.2-1.2h4.3c.7 0 1.2.6 1.2 1.2.1.6-.5 1.2-1.2 1.2z"/><path fill="#3C4E5A" d="M145.7 193.9H124c-.7 0-1.2-.5-1.2-1.2s.5-1.2 1.2-1.2h21.7c.7 0 1.2.5 1.2 1.2 0 .6-.5 1.2-1.2 1.2z"/><path fill="#FFF" d="M182 209.1h-21.7c-.7 0-1.2-.5-1.2-1.2s.5-1.2 1.2-1.2H182c.7 0 1.2.5 1.2 1.2s-.5 1.2-1.2 1.2zM223 209.1h-21.7c-.7 0-1.2-.5-1.2-1.2s.5-1.2 1.2-1.2H223c.7 0 1.2.5 1.2 1.2s-.5 1.2-1.2 1.2zM196.9 222.1h-36.6c-.7 0-1.2-.5-1.2-1.2s.5-1.2 1.2-1.2h36.6c.7 0 1.2.5 1.2 1.2s-.6 1.2-1.2 1.2zM210.2 215.6h-49.9c-.7 0-1.2-.5-1.2-1.2s.5-1.2 1.2-1.2h49.9c.7 0 1.2.5 1.2 1.2 0 .6-.6 1.2-1.2 1.2z"/><path fill="#DFDFDF" d="M117 157.5h-4.3c-.7 0-1.2-.6-1.2-1.2 0-.7.6-1.2 1.2-1.2h4.3c.7 0 1.2.6 1.2 1.2.1.6-.5 1.2-1.2 1.2zM117 164.8h-4.3c-.7 0-1.2-.6-1.2-1.2 0-.7.6-1.2 1.2-1.2h4.3c.7 0 1.2.6 1.2 1.2.1.6-.5 1.2-1.2 1.2zM117 171.2h-4.3c-.7 0-1.2-.6-1.2-1.2 0-.7.6-1.2 1.2-1.2h4.3c.7 0 1.2.6 1.2 1.2.1.7-.5 1.2-1.2 1.2zM117 178.6h-4.3c-.7 0-1.2-.6-1.2-1.2 0-.7.6-1.2 1.2-1.2h4.3c.7 0 1.2.6 1.2 1.2.1.7-.5 1.2-1.2 1.2zM117 186h-4.3c-.7 0-1.2-.6-1.2-1.2 0-.7.6-1.2 1.2-1.2h4.3c.7 0 1.2.6 1.2 1.2.1.6-.5 1.2-1.2 1.2zM117 193.8h-4.3c-.7 0-1.2-.6-1.2-1.2 0-.7.6-1.2 1.2-1.2h4.3c.7 0 1.2.6 1.2 1.2.1.7-.5 1.2-1.2 1.2zM117 201h-4.3c-.7 0-1.2-.6-1.2-1.2 0-.7.6-1.2 1.2-1.2h4.3c.7 0 1.2.6 1.2 1.2.1.6-.5 1.2-1.2 1.2zM117 208.9h-4.3c-.7 0-1.2-.6-1.2-1.2 0-.7.6-1.2 1.2-1.2h4.3c.7 0 1.2.6 1.2 1.2.1.7-.5 1.2-1.2 1.2zM117 216.3h-4.3c-.7 0-1.2-.6-1.2-1.2 0-.7.6-1.2 1.2-1.2h4.3c.7 0 1.2.6 1.2 1.2.1.6-.5 1.2-1.2 1.2zM141.4 209.2h-9.5c-.7 0-1.2-.6-1.2-1.2 0-.7.6-1.2 1.2-1.2h9.5c.7 0 1.2.6 1.2 1.2s-.6 1.2-1.2 1.2z"/><path fill="#3C4E5A" d="M155.8 209.2h-9.5c-.7 0-1.2-.6-1.2-1.2 0-.7.6-1.2 1.2-1.2h9.5c.7 0 1.2.6 1.2 1.2.1.6-.5 1.2-1.2 1.2z"/><path fill="#797AB0" d="M196 209.2h-9.5c-.7 0-1.2-.6-1.2-1.2 0-.7.6-1.2 1.2-1.2h9.5c.7 0 1.2.6 1.2 1.2s-.5 1.2-1.2 1.2z"/><path fill="#DFDFDF" d="M238 209.2h-9.5c-.7 0-1.2-.6-1.2-1.2 0-.7.6-1.2 1.2-1.2h9.5c.7 0 1.2.6 1.2 1.2.1.6-.5 1.2-1.2 1.2zM210.9 222.2h-9.5c-.7 0-1.2-.6-1.2-1.2 0-.7.6-1.2 1.2-1.2h9.5c.7 0 1.2.6 1.2 1.2.1.6-.5 1.2-1.2 1.2zM225.3 222.2h-9.5c-.7 0-1.2-.6-1.2-1.2 0-.7.6-1.2 1.2-1.2h9.5c.7 0 1.2.6 1.2 1.2s-.5 1.2-1.2 1.2z"/><path fill="#E6E6E6" d="M226.6 215.6H217c-.7 0-1.2-.6-1.2-1.2 0-.7.6-1.2 1.2-1.2h9.5c.7 0 1.2.6 1.2 1.2.1.7-.5 1.2-1.1 1.2z"/><path fill="#FFF" d="M241.9 215.6h-9.5c-.7 0-1.2-.6-1.2-1.2 0-.7.6-1.2 1.2-1.2h9.5c.7 0 1.2.6 1.2 1.2.1.7-.5 1.2-1.2 1.2zM182 259h-21.7c-.7 0-1.2-.5-1.2-1.2s.5-1.2 1.2-1.2H182c.7 0 1.2.5 1.2 1.2 0 .6-.5 1.2-1.2 1.2zM223 259h-21.7c-.7 0-1.2-.5-1.2-1.2s.5-1.2 1.2-1.2H223c.7 0 1.2.5 1.2 1.2 0 .6-.5 1.2-1.2 1.2zM196.9 271.9h-36.6c-.7 0-1.2-.5-1.2-1.2s.5-1.2 1.2-1.2h36.6c.7 0 1.2.5 1.2 1.2s-.6 1.2-1.2 1.2zM198.1 265.4h-37.8c-.7 0-1.2-.5-1.2-1.2s.5-1.2 1.2-1.2h37.8c.7 0 1.2.5 1.2 1.2s-.5 1.2-1.2 1.2z"/><path fill="#797AB0" d="M196 259h-9.5c-.7 0-1.2-.6-1.2-1.2 0-.7.6-1.2 1.2-1.2h9.5c.7 0 1.2.6 1.2 1.2s-.5 1.2-1.2 1.2z"/><path fill="#DFDFDF" d="M238 259h-9.5c-.7 0-1.2-.6-1.2-1.2 0-.7.6-1.2 1.2-1.2h9.5c.7 0 1.2.6 1.2 1.2.1.6-.5 1.2-1.2 1.2zM210.9 272h-9.5c-.7 0-1.2-.6-1.2-1.2 0-.7.6-1.2 1.2-1.2h9.5c.7 0 1.2.6 1.2 1.2.1.6-.5 1.2-1.2 1.2zM213.7 265.4h-9.5c-.7 0-1.2-.6-1.2-1.2 0-.7.6-1.2 1.2-1.2h9.5c.7 0 1.2.6 1.2 1.2.1.7-.5 1.2-1.2 1.2zM225.3 272h-9.5c-.7 0-1.2-.6-1.2-1.2 0-.7.6-1.2 1.2-1.2h9.5c.7 0 1.2.6 1.2 1.2s-.5 1.2-1.2 1.2z"/><path fill="#E6E6E6" d="M226.6 265.4H217c-.7 0-1.2-.6-1.2-1.2 0-.7.6-1.2 1.2-1.2h9.5c.7 0 1.2.6 1.2 1.2.1.7-.5 1.2-1.1 1.2z"/><path fill="#FFF" d="M241.9 265.4h-9.5c-.7 0-1.2-.6-1.2-1.2 0-.7.6-1.2 1.2-1.2h9.5c.7 0 1.2.6 1.2 1.2.1.7-.5 1.2-1.2 1.2z"/><path fill="#DFDFDF" d="M141.4 215.6h-9.5c-.7 0-1.2-.6-1.2-1.2 0-.7.6-1.2 1.2-1.2h9.5c.7 0 1.2.6 1.2 1.2 0 .7-.6 1.2-1.2 1.2z"/><path fill="#3C4E5A" d="M155.8 215.6h-9.5c-.7 0-1.2-.6-1.2-1.2 0-.7.6-1.2 1.2-1.2h9.5c.7 0 1.2.6 1.2 1.2.1.7-.5 1.2-1.2 1.2z"/><path fill="#DFDFDF" d="M141.4 221.8h-9.5c-.7 0-1.2-.6-1.2-1.2 0-.7.6-1.2 1.2-1.2h9.5c.7 0 1.2.6 1.2 1.2s-.6 1.2-1.2 1.2z"/><path fill="#3C4E5A" d="M155.8 221.8h-9.5c-.7 0-1.2-.6-1.2-1.2 0-.7.6-1.2 1.2-1.2h9.5c.7 0 1.2.6 1.2 1.2.1.6-.5 1.2-1.2 1.2z"/><path fill="#DFDFDF" d="M141.4 259.5h-9.5c-.7 0-1.2-.6-1.2-1.2 0-.7.6-1.2 1.2-1.2h9.5c.7 0 1.2.6 1.2 1.2s-.6 1.2-1.2 1.2zM155.8 259.5h-9.5c-.7 0-1.2-.6-1.2-1.2 0-.7.6-1.2 1.2-1.2h9.5c.7 0 1.2.6 1.2 1.2.1.6-.5 1.2-1.2 1.2zM141.4 265.9h-9.5c-.7 0-1.2-.6-1.2-1.2 0-.7.6-1.2 1.2-1.2h9.5c.7 0 1.2.6 1.2 1.2 0 .7-.6 1.2-1.2 1.2zM155.8 265.9h-9.5c-.7 0-1.2-.6-1.2-1.2 0-.7.6-1.2 1.2-1.2h9.5c.7 0 1.2.6 1.2 1.2.1.7-.5 1.2-1.2 1.2zM141.4 272.1h-9.5c-.7 0-1.2-.6-1.2-1.2 0-.7.6-1.2 1.2-1.2h9.5c.7 0 1.2.6 1.2 1.2s-.6 1.2-1.2 1.2zM155.8 272.1h-9.5c-.7 0-1.2-.6-1.2-1.2 0-.7.6-1.2 1.2-1.2h9.5c.7 0 1.2.6 1.2 1.2.1.6-.5 1.2-1.2 1.2z"/><path fill="#3C4E5A" d="M145.9 243.6h-22.4c-.7 0-1.2-.6-1.2-1.2 0-.7.6-1.2 1.2-1.2h22.4c.7 0 1.2.6 1.2 1.2s-.5 1.2-1.2 1.2z"/><path fill="#DFDFDF" d="M117 222.7h-4.3c-.7 0-1.2-.6-1.2-1.2 0-.7.6-1.2 1.2-1.2h4.3c.7 0 1.2.6 1.2 1.2.1.6-.5 1.2-1.2 1.2zM117 229.3h-4.3c-.7 0-1.2-.6-1.2-1.2 0-.7.6-1.2 1.2-1.2h4.3c.7 0 1.2.6 1.2 1.2.1.7-.5 1.2-1.2 1.2zM117 237.8h-4.3c-.7 0-1.2-.6-1.2-1.2 0-.7.6-1.2 1.2-1.2h4.3c.7 0 1.2.6 1.2 1.2.1.6-.5 1.2-1.2 1.2zM117 244.2h-4.3c-.7 0-1.2-.6-1.2-1.2 0-.7.6-1.2 1.2-1.2h4.3c.7 0 1.2.6 1.2 1.2.1.7-.5 1.2-1.2 1.2zM117 250.7h-4.3c-.7 0-1.2-.6-1.2-1.2 0-.7.6-1.2 1.2-1.2h4.3c.7 0 1.2.6 1.2 1.2.1.6-.5 1.2-1.2 1.2zM117 259.1h-4.3c-.7 0-1.2-.6-1.2-1.2 0-.7.6-1.2 1.2-1.2h4.3c.7 0 1.2.6 1.2 1.2.1.7-.5 1.2-1.2 1.2zM117 265.9h-4.3c-.7 0-1.2-.6-1.2-1.2 0-.7.6-1.2 1.2-1.2h4.3c.7 0 1.2.6 1.2 1.2.1.7-.5 1.2-1.2 1.2zM117 273h-4.3c-.7 0-1.2-.6-1.2-1.2 0-.7.6-1.2 1.2-1.2h4.3c.7 0 1.2.6 1.2 1.2.1.6-.5 1.2-1.2 1.2zM117 279.1h-4.3c-.7 0-1.2-.6-1.2-1.2 0-.7.6-1.2 1.2-1.2h4.3c.7 0 1.2.6 1.2 1.2.1.7-.5 1.2-1.2 1.2zM117 286.5h-4.3c-.7 0-1.2-.6-1.2-1.2 0-.7.6-1.2 1.2-1.2h4.3c.7 0 1.2.6 1.2 1.2.1.7-.5 1.2-1.2 1.2zM128.6 279.1h-4.3c-.7 0-1.2-.6-1.2-1.2 0-.7.6-1.2 1.2-1.2h4.3c.7 0 1.2.6 1.2 1.2 0 .7-.5 1.2-1.2 1.2zM154.1 243.6h-4.3c-.7 0-1.2-.6-1.2-1.2 0-.7.6-1.2 1.2-1.2h4.3c.7 0 1.2.6 1.2 1.2.1.6-.5 1.2-1.2 1.2zM128.6 230.7h-4.3c-.7 0-1.2-.6-1.2-1.2 0-.7.6-1.2 1.2-1.2h4.3c.7 0 1.2.6 1.2 1.2 0 .7-.5 1.2-1.2 1.2zM153.9 193.9h-4.3c-.7 0-1.2-.6-1.2-1.2 0-.7.6-1.2 1.2-1.2h4.3c.7 0 1.2.6 1.2 1.2s-.6 1.2-1.2 1.2z"/><path fill="#3C4E5A" d="M145.7 141.8H124c-.7 0-1.2-.5-1.2-1.2s.5-1.2 1.2-1.2h21.7c.7 0 1.2.5 1.2 1.2s-.5 1.2-1.2 1.2z"/><path fill="#FFF" d="M182 157.1h-21.7c-.7 0-1.2-.5-1.2-1.2s.5-1.2 1.2-1.2H182c.7 0 1.2.5 1.2 1.2s-.5 1.2-1.2 1.2zM196.9 170.1h-36.6c-.7 0-1.2-.5-1.2-1.2s.5-1.2 1.2-1.2h36.6c.7 0 1.2.5 1.2 1.2s-.6 1.2-1.2 1.2zM196.1 163.6h-49.9c-.7 0-1.2-.5-1.2-1.2s.5-1.2 1.2-1.2h49.9c.7 0 1.2.5 1.2 1.2 0 .6-.6 1.2-1.2 1.2z"/><path fill="#DFDFDF" d="M141.4 157.2h-9.5c-.7 0-1.2-.6-1.2-1.2 0-.7.6-1.2 1.2-1.2h9.5c.7 0 1.2.6 1.2 1.2s-.6 1.2-1.2 1.2z"/><path fill="#3C4E5A" d="M155.8 157.2h-9.5c-.7 0-1.2-.6-1.2-1.2 0-.7.6-1.2 1.2-1.2h9.5c.7 0 1.2.6 1.2 1.2.1.6-.5 1.2-1.2 1.2z"/><path fill="#797AB0" d="M196 157.2h-9.5c-.7 0-1.2-.6-1.2-1.2 0-.7.6-1.2 1.2-1.2h9.5c.7 0 1.2.6 1.2 1.2s-.5 1.2-1.2 1.2z"/><path fill="#DFDFDF" d="M211.6 157.2h-9.5c-.7 0-1.2-.6-1.2-1.2 0-.7.6-1.2 1.2-1.2h9.5c.7 0 1.2.6 1.2 1.2s-.5 1.2-1.2 1.2zM210.9 170.1h-9.5c-.7 0-1.2-.6-1.2-1.2 0-.7.6-1.2 1.2-1.2h9.5c.7 0 1.2.6 1.2 1.2.1.7-.5 1.2-1.2 1.2zM225.3 170.1h-9.5c-.7 0-1.2-.6-1.2-1.2 0-.7.6-1.2 1.2-1.2h9.5c.7 0 1.2.6 1.2 1.2 0 .7-.5 1.2-1.2 1.2z"/><path fill="#E6E6E6" d="M211.6 163.6h-9.5c-.7 0-1.2-.6-1.2-1.2 0-.7.6-1.2 1.2-1.2h9.5c.7 0 1.2.6 1.2 1.2s-.5 1.2-1.2 1.2z"/><path fill="#FFF" d="M227 163.6h-9.5c-.7 0-1.2-.6-1.2-1.2 0-.7.6-1.2 1.2-1.2h9.5c.7 0 1.2.6 1.2 1.2s-.5 1.2-1.2 1.2z"/><path fill="#DFDFDF" d="M141.4 163.6h-9.5c-.7 0-1.2-.6-1.2-1.2 0-.7.6-1.2 1.2-1.2h9.5c.7 0 1.2.6 1.2 1.2s-.6 1.2-1.2 1.2zM141.4 169.7h-9.5c-.7 0-1.2-.6-1.2-1.2 0-.7.6-1.2 1.2-1.2h9.5c.7 0 1.2.6 1.2 1.2 0 .7-.6 1.2-1.2 1.2z"/><path fill="#3C4E5A" d="M155.8 169.7h-9.5c-.7 0-1.2-.6-1.2-1.2 0-.7.6-1.2 1.2-1.2h9.5c.7 0 1.2.6 1.2 1.2.1.7-.5 1.2-1.2 1.2z"/><path fill="#DFDFDF" d="M128.6 178.7h-4.3c-.7 0-1.2-.6-1.2-1.2 0-.7.6-1.2 1.2-1.2h4.3c.7 0 1.2.6 1.2 1.2s-.5 1.2-1.2 1.2zM153.9 141.9h-4.3c-.7 0-1.2-.6-1.2-1.2 0-.7.6-1.2 1.2-1.2h4.3c.7 0 1.2.6 1.2 1.2s-.6 1.2-1.2 1.2z"/></g></svg>