<svg xmlns="http://www.w3.org/2000/svg" xmlns:xlink="http://www.w3.org/1999/xlink" viewBox="0 0 156.5 156.5"><defs><path id="a" d="M137.2 79.5c0 32.3-26.2 58.6-58.6 58.6S20 111.9 20 79.5s26.2-58.6 58.6-58.6 58.6 26.3 58.6 58.6"/></defs><clipPath id="b"><use xlink:href="#a" overflow="visible"/></clipPath><path clip-path="url(#b)" fill="#0D3649" d="M137.2 79.5c0 12.7-4 24.4-10.9 34-10.6 14.9-28 18.3-47.7 18.3-19.5 0-36.7-3.3-47.3-17.9-7.1-9.7-11.2-21.6-11.2-34.5 0-32.3 26.2-58.6 58.6-58.6s58.5 26.4 58.5 58.7"/><circle clip-path="url(#b)" fill="#3AB2CF" cx="78.5" cy="139.4" r="53.7"/><path clip-path="url(#b)" fill="#12384B" d="M65.7 34.7c-.6 0-1.2.2-1.6.6l-3.7 3.4c-1 .9-1 2.4-.1 3.4l7.1 7.7c.5.5 1.1.8 1.7.8.6 0 1.2-.2 1.6-.6l1.2-1.1 1.4 1.5-6.9 6.3c-.3.3-.3.7 0 1l1.2 1.3c-1 1.5-.9 3.5.4 4.9.8.8 1.8 1.3 2.9 1.3.7 0 1.3-.2 1.9-.5l1.1 1.2c.1.1.3.2.5.2s.3-.1.5-.2l6.9-6.3 1.4 1.5-1.2 1.1c-1 .9-1 2.4-.1 3.4l7.1 7.7c.5.5 1.1.8 1.7.8.6 0 1.2-.2 1.6-.6l3.7-3.4c1-.9 1-2.4.1-3.4L89 58.8c-.5-.5-1.1-.8-1.7-.8-.6 0-1.2.2-1.6.6l-1.4 1.3-1.4-1.5 2.7-2.4c.3-.3.3-.7 0-1L83 52.3l1.1-1c1.7 1.3 3.7 1.9 5.8 1.9 1.9 0 3.8-.6 5.5-1.7.4-.3.7-.5 1.1-.8l.1-.1-6.3-6.8 1.5-1.4c.4.3.8.4 1.2.4.5 0 1-.2 1.4-.5.8-.8.9-2 .1-2.9-.4-.4-.9-.7-1.5-.7-.5 0-1 .2-1.4.5-.7.7-.9 1.7-.3 2.6l-1.5 1.4-6.3-6.8-.1.1c-.3.3-.6.6-.9 1-2.6 3.2-2.9 7.7-.7 11.2l-1.1 1-2.7-2.8c-.1-.1-.3-.2-.5-.2s-.3.1-.5.2l-2.7 2.4-1.3-1.5 1.4-1.3c1-.9 1-2.4.1-3.4l-7.1-7.7c-.4-.5-1.1-.7-1.7-.7"/><path transform="rotate(47.322 79.394 53.99)" clip-path="url(#b)" fill="#28353D" d="M68.3 53.3h22.2v1.4H68.3z"/><path clip-path="url(#b)" fill="#8689CA" d="M68.7 50.2l-7.1-7.7c-.9-1-.8-2.5.1-3.4l3.7-3.4c1-.9 2.5-.8 3.4.1l7.1 7.7c.9 1 .8 2.5-.1 3.4L72 50.3c-.9.9-2.4.8-3.3-.1z"/><path clip-path="url(#b)" fill="#8689CA" d="M68.7 50.2l-7.1-7.7c-.9-1-.8-2.5.1-3.4l3.7-3.4c1-.9 2.5-.8 3.4.1l7.1 7.7c.9 1 .8 2.5-.1 3.4L72 50.3c-.9.9-2.4.8-3.3-.1z"/><path clip-path="url(#b)" fill="#FFF" d="M68.7 50.2l-7.1-7.7c-.9-1-.8-2.5.1-3.4l3.7-3.4c1-.9 2.5-.8 3.4.1l7.1 7.7c.9 1 .8 2.5-.1 3.4L72 50.3c-.9.9-2.4.8-3.3-.1zM89.4 74.1l-7.1-7.7c-.9-1-.8-2.5.1-3.4l3.7-3.4c1-.9 2.5-.8 3.4.1l7.1 7.7c.9 1 .8 2.5-.1 3.4l-3.7 3.4c-1 .9-2.5.8-3.4-.1z"/><circle clip-path="url(#b)" fill="#CCC" cx="72.2" cy="60.7" r="3.9"/><path transform="rotate(47.326 91.953 42.412)" clip-path="url(#b)" fill="#28353D" d="M91.6 40.6h.7v3.6h-.7z"/><path transform="rotate(47.322 83.785 49.942)" clip-path="url(#b)" fill="#28353D" d="M82 48h3.6v3.8H82z"/><path clip-path="url(#b)" fill="#F2F2F2" d="M75.3 66.1L67.8 58c-.3-.3-.2-.7 0-1l10.6-9.8c.3-.3.7-.2 1 0l7.5 8.1c.3.3.2.7 0 1l-10.6 9.8c-.4.3-.8.3-1 0zM84 49.7c3.3 3.6 8.7 4.1 12.6 1.4l-12.9-14c-3 3.7-3 9.1.3 12.6z"/><path clip-path="url(#b)" fill="#CCC" d="M97.7 50.2l-13-14.1-.1.1c-.3.3-.6.6-.9 1l12.9 14c.4-.3.7-.6 1.1-1z"/><circle clip-path="url(#b)" fill="#CCC" cx="94.2" cy="40.4" r="2"/><path clip-path="url(#b)" fill="#CCC" d="M81.5 53.8l-3.6-3.9c-.2-.2-.2-.6 0-.8.2-.2.6-.2.8 0l3.6 3.9c.2.2.2.6 0 .8-.2.2-.6.2-.8 0z"/><circle clip-path="url(#b)" fill="#CCC" cx="68.9" cy="57" r=".5"/><circle clip-path="url(#b)" fill="#CCC" cx="70" cy="58.2" r=".5"/><circle clip-path="url(#b)" fill="#CCC" cx="71.2" cy="59.4" r=".5"/><g clip-path="url(#b)"><defs><path id="c" d="M27.5 156c-.9-2.6-1.9-7-2.1-8.6-.1-1.3-.4-3-.5-4.2 0-1.3-.2-3-.1-4.2 0-1.3.1-3 .2-4.2.1-1.2.3-2.9.5-4.1.3-1.6.7-3.7 1.1-5.2.9-3.1 1.7-6 4.2-10.8 1.1-2.1 2.7-4.9 4.2-6.8 1.5-1.9 3.6-4.3 5.2-6.1.8-.9 2-2 2.9-2.7 1.3-1.1 3-2.4 4.3-3.4 0 0 2.2-1.6 4.4-2.8 1.7-.9 3-1.6 5.4-2.7 1-.4 2.7-1.1 5-1.9 2.1-.7 10 18.2 18.6 44.3 9.2 27.9 15.5 53.5 14.2 57.2-.1 0-.2.1-.2.1h.2c.1 0 .2-.1.2-.1H95c1.3-3.7-5.1-29.3-14.2-57.2-8.6-26.1-16.5-45-18.6-44.3 3.7-1.2 6.7-1.7 7.3-1.8 1-.2 2.5-.4 3.8-.5 1.4-.1 3.4-.2 4.8-.3 2-.1 4.8.1 6.8.4 2.2.3 5.1.8 7.3 1.4 2.1.6 4.9 1.5 7 2.3 2.3 1 5.2 2.4 7.3 3.7 2.1 1.3 4.8 3.2 6.7 4.8 1.9 1.6 4.3 3.9 5.9 5.8 1.6 1.9 3.7 4.6 5 6.7 1.4 2.2 2.9 5.3 3.9 7.6.7 1.6 1.5 3.7 1.9 5.3.9 3.1 1.5 5.4 1.8 8.5.3 2.5.5 5.9.4 8.4-.1 3.9-.6 6.8-.9 8.3-.4 2.4-1.2 5.1-2.2 8-.7 2.1-2 4.9-3 6.9-3.6 6.9-7.7 11.1-9.4 12.9-1.3 1.4-3.2 3.1-4.7 4.2-2 1.5-3.7 2.8-6.9 4.6-5.8 3.3-11.3 4.9-14.1 5.6-2.6.6-5.1 1.1-7.4 1.3-1.4.1-3.4.2-4.8.3-.9 0-2.2 0-3.1-.1-2.2-.2-5.1-.5-7.3-.9-2.1-.4-4.8-1.1-6.9-1.8-2.3-.8-5.3-2-7.5-3.1s-5-2.8-7-4.2c-2-1.5-4.5-3.6-6.3-5.3-1.8-1.7-4-4.3-5.5-6.3s-3.3-4.9-4.5-7.2c-1-2.1-2.3-5.4-3.1-7.8"/></defs><clipPath id="d"><use xlink:href="#c" overflow="visible"/></clipPath><path clip-path="url(#d)" fill="#EBEBEC" d="M30.8 114.9l.4-.4.9-1.5c1.3-2.7 1.3-2.8 2.3-4.3-.8 1.2-1.9 2.8-2.6 4.1l-1 2.1M25.1 133.2c.1-1 .3-2.1.4-3.1l.1-.6-.2 1-.5 4.1.2-1.4"/><path clip-path="url(#d)" fill="#F6F7F7" d="M116 142.6l.9-1.8c.7-.1 1.3-.3 2-.4.5-1.1 1.2-2.5 1.6-3.5l1.8-.3.7-1.7c-.1-1.1-.3-2.1-.5-3.2-.4 1-.9 2.5-1.3 3.5l-1.1-1.4c-.6.1-1.3.2-1.9.4-.7 1.6-1.7 3.8-2.4 5.4 0 .9.1 2 .2 3"/><path clip-path="url(#d)" fill="#EBEBEC" d="M114.6 106.1l-.2-1.3c-4.1-2.7-4.1-2.8-6.7-4.2l.2 1.2c4.2 2.6 4.4 2.7 6.7 4.3"/><path clip-path="url(#d)" fill="#EBEBEC" d="M93.6 91.4c1.5.9 3 1.9 4.5 3-1-2.1-1.1-2.5-2.7-4.1 1.1.4 2.5.8 3.5 1.2.7-.1 1.3-.1 1.8-.1 2 1.8 2.1 1.9 3 3.2 1.6 1.1 3.1 2.4 4.5 3.7 1 .6 2.3 1.3 3.3 2 .4 0 .7-.1 1.1-.1l-.6-1.1 1.5 1.1c.7.7 1.4 1.4 2.1 2.2.3.7.8 1.6 1 2.4 1.3 1.6 2.5 3.3 3.6 5.1.8.8 1.9 1.9 2.6 2.7h.9c.7.9 1.6 2.1 2.2 3 .2.9.5 2 .6 2.9.4 1 .8 2 1.1 3.1.5 1 1.2 2.3 1.7 3.3-.1-.9-.2-2.1-.4-3l.7 1.7c.2 1.3.4 3.1.5 4.5.2 1.1.4 2.1.5 3.2 0-3.7 0-3.9-.4-6l-.9-3-1.2-3.3-.6-1.5c-3.1-6.3-11.4-23-34.9-29.8-.2 0-.4-.1-.7-.1l1.2.4c-1.3 0-3.4.2-6.1.8.3.4.8.9 1.1 1.3 1.7.2 3.9.6 5.5 1.3"/></g><g clip-path="url(#b)"><defs><path id="e" d="M94.7 190.2c-5 1.6-9.9 2.4-15 2.6-3.7.1-6.5-.2-8.1-.4-2-.2-4.8-.7-6.7-1.3-2.3-.7-5.4-1.7-7.7-2.6-2.2-1-5.2-2.5-7.2-3.8-2.1-1.3-4.7-3.3-6.6-4.9-1.9-1.6-4.2-4-5.8-5.9-2.6-3.1-5.9-7.5-8.8-14.5-.9-2.2-1.9-5.3-2.5-7.7-.3-1.3-.6-3-.8-4.2-.2-1.3-.4-3-.5-4.3 0-.1-.4-3.7 0-8.4.1-1.2.3-2.9.5-4.1.2-1.2.6-2.9.8-4.1.3-1.6 1-3.6 1.5-5.1.9-2.3 2.1-5.2 3.3-7.4 1.1-2.1 2.8-4.9 4.3-6.8.7-.9 1.7-2.2 2.5-3.1 1.5-1.6 3.6-3.7 5.2-5.2.7-.6 1.7-1.4 2.4-2 1.3-1 3.1-2.2 4.4-3.1 3.3-2.1 6.3-3.4 7.3-3.8.2-.1 1.3-.6 2.8-1.1.3-.1 1.2-.4 2.2-.8-.1 0-.3.2-.3.4.1-.2.2-.4.3-.4 2.5-.8 4.9-1.4 7.1-1.8 1.2-.2 4.1-.7 7.9-.8 3.7-.1 6.5.2 8.2.4 2.1.2 4.8.7 6.8 1.3 2.4.7 5.5 1.7 7.7 2.6 2.2 1 5.2 2.5 7.2 3.8 2.1 1.3 4.7 3.3 6.6 4.9 1.9 1.6 4.2 4 5.8 5.9 1.6 1.9 3.6 4.7 4.9 6.8 1.3 2.2 2.8 5.3 3.8 7.7 1 2.2 1.8 5.3 2.4 7.6.4 1.6.8 3.8 1 5.5.3 2.5.5 5.9.4 8.4-.1 4.1-.7 7.1-.9 8.3-.3 1.8-1 4.6-2.1 8-.9 2.5-2 5-3.3 7.4-1.1 2.1-2.8 4.9-4.3 6.8-.7.9-1.7 2.2-2.5 3.1-1.5 1.6-3.6 3.7-5.2 5.2 0 0-2.7 2.4-6.8 5-3.3 2.1-6.3 3.4-7.3 3.8-.2.1-1.4.6-2.8 1.1-.3.4-1.2.7-2.1 1"/></defs><clipPath id="f"><use xlink:href="#e" overflow="visible"/></clipPath><path clip-path="url(#f)" fill="#3176AD" d="M30.5 116c.1-.2.2-.5.3-.7-1.1 2.1-2 4.3-2.8 6.6l.1-.2c.7-1.9 1.5-3.8 2.4-5.7z"/><path clip-path="url(#f)" fill="#37A2BC" d="M37 114.6c.2 2 .2 2.8.4 3.5.7-2.3 1.6-4.4 2.6-6.6-.2 0-.5.1-.7.1-.6 1-1.6 2.2-2.3 3zM36.6 107l-.8 1.3c.4.1.9.1 1.5.1.7-.8 1.7-1.8 2.4-2.5.7-.1 1.5-.2 2.4-.3-.1.7-.4 1.6-.4 2.3.3-.3.6-.6.9-1 4.3-7 10.5-13.5 17.4-17.9-9.3 3.5-18 9.7-24 17.4.1.1.4.5.6.6z"/><path clip-path="url(#f)" fill="#2694B9" d="M27.3 140.7c-.2.9-.5 2.2-.7 3.1.1 1.1.2 2.1.3 3.2.4 1 .9 2.3 1.4 3.2h1c2.2 3.5 2.6 4.2 5.5 7.6.5-.1 1-.1 1.6-.2l.3-1.7c.8-.1 1.6-.3 2.4-.4-2.8-6.4-4.3-13.5-4.3-21 0-1.1 0-2.1.1-3.2-1.6 2.9-2.9 5.6-4.2 9.1-1.3.2-2.5.3-3.4.3z"/><path clip-path="url(#f)" fill="#EBEBEC" d="M31.9 112.7v-.1l.1-.1"/><path clip-path="url(#f)" fill="#F6F7F7" d="M37.4 127c.6-.1 1.1-.2 1.8-.4 1.4-2.3 1.7-2.7 4.3-6.7.6-.1 1.2-.3 1.9-.5.7-1 1.5-2.3 2.2-3.3-.5-.6-1-1.6-1.4-2.2-.6.1-1.2.3-1.7.4l.6-2.7c-.5.1-1 .2-1.5.4-2.7 3.5-3 4-5.6 7.7-.2-.7-.3-1.2-.4-1.6-1.3 4.2-2.2 8.6-2.5 13.2.6-1.3 1.4-2.7 2.3-4.3z"/><path clip-path="url(#f)" fill="#EBEBEC" d="M36.2 106.5l-.9 1.1.1-.2-.9 1.2c-.8 1.2-1.8 2.8-2.6 4l-.1.1v.3c-.3.6-.7 1.5-1 2.2 1.5-3 3.4-5.9 5.4-8.5v-.2z"/><path clip-path="url(#f)" fill="#F6F7F7" d="M40.5 111.5l1.2-1.4c.4-.1.8-.2 1.3-.3.7-.8 1.6-1.9 2.3-2.8.2 1.6.3 1.7 1.3 4.3.7-.9 1.6-2.1 2.2-2.9l.6-2.4c-.2-.6-.4-1.4-.6-2 1.4-1.7 2.1-2.4 4.2-4.9-1.1.3-2.2.6-3.2.8-1.7 1.8-1.7 1.8-4.7 4.9-.4.1-.7.2-1.1.2-.5.5-1 1.1-1.5 1.7-.9 1.5-1.8 3.1-2.6 4.8.3.1.5.1.6 0z"/><path clip-path="url(#f)" fill="#EBEBEC" d="M28 121.9c-.3.8-.7 1.8-1 2.5-.3 1-.6 2-.8 3l-.5 2.1-.2 1-.5 4.1c-.1 1.6-.1 3.8 0 5.5 0 1.1.1 2.1.1 3.2.1.4.1.7.2 1.1-.1-1.6-.2-3.3-.2-4.9-.1-6.2 1-12.1 2.9-17.6z"/><path clip-path="url(#f)" fill="#E5E5E4" d="M29.1 153.4c1.3 2.3 1.4 2.5 4.3 6.2.4 0 .9-.1 1.4-.1l1.3 1.4c.4 1 .9 2 1.3 2.9v1.5c1 1.9 2.1 3.7 3.2 5.4l1.6 1.2c.6.8 1.2 1.7 1.8 2.4 3.7 2.4 4.7 2.9 8.7 4.9 3.4 3.4 7.1 6.2 11 8.3 1.1.3 2.5.7 3.6 1 1.5.8 3.1 1.4 4.7 1.9 1 .2 2.4.4 3.4.5.3-.1.7-.1 1.1-.2-.7-.2-1.5-.5-2.2-.8l-1.7-.3c-.7-.3-1.5-.6-2.2-1-.4-.7-.7-1.6-1-2.3-.7-.5-1.3-.9-2-1.4-.1-.7-.1-1-.1-1.5-12.6-5.4-22.7-15.4-28.1-28-.8.2-1.6.3-2.4.4l-.3 1.7c-.5.1-1.1.2-1.6.2-2.9-3.4-3.3-4.1-5.5-7.6h-1c-.5-1-1-2.3-1.4-3.2-.1-1.1-.3-2.1-.3-3.2.2-.9.5-2.2.7-3.1.9 0 2.1-.1 3.4-.2 1.3-3.5 2.7-6.3 4.2-9.1.3-4.6 1.1-9 2.5-13.2-.2-.8-.2-1.6-.4-3.5.7-.9 1.6-2 2.3-2.9.2 0 .5-.1.7-.1.8-1.6 1.7-3.2 2.6-4.8-.3.3-.6.7-.9 1 .1-.7.3-1.6.4-2.3-.9.1-1.7.3-2.4.3-.7.7-1.7 1.8-2.4 2.5-.7 0-1.2 0-1.5-.1l.8-1.3c-.2-.1-.3-.1-.4-.2-2.1 2.7-3.9 5.5-5.4 8.5-.1.3-.2.5-.3.7-.9 1.9-1.7 3.8-2.4 5.7l-.1.2c-1.9 5.5-3 11.4-3 17.6 0 1.7.1 3.3.2 4.9.7 3.8 1.8 6.2 3 9 .2.1.5.1.8.1z"/><path clip-path="url(#f)" fill="#F6F7F7" d="M63 102.2l-1.8.6c-.5.8-1.2 1.9-1.7 2.7-.6.2-1.3.4-1.9.6-.6.9-1.3 2-1.9 2.9-.7.2-1.3.4-1.9.5-.5-.6-1.1-1.3-1.6-1.9.6-.8 1.4-2 2-2.8.1-.8.2-1.5.4-2.2l-.5-.9c-.5.1-.9.3-1.4.4l-.3-.9c.6-.7 1.4-1.6 2-2.3 2.5-.7 5.3-1.5 8.2-2.4.8-.2 1.5-.5 2.2-.7l1 .6c-2 4.8-2.8 5.8-2.8 5.8M74.3 108.2c-.4 1-.9 2.2-1.3 3.2-.8.3-1.6.5-2.4.8-.3-.8-.6-1.6-.8-2.4.4-.9 1-2.2 1.4-3.1.7-.2 1.5-.5 2.2-.7.2.6.6 1.4.9 2.2"/><path clip-path="url(#f)" fill="#FFF" d="M127.6 117.4c-.6-1.1-1.4-2.6-2.1-3.7v.1c0 .1-.1.2-.2.4.5 1.5 1.1 3.6 1.5 5.1.7 1.6 1.3 3.2 1.8 4.8.2.5.3.9.4 1.4l.1 1.9-.8-1.3c-.1-.5-.3-.9-.4-1.4l-.6-1.8c-.6-.7-1.4-1.7-2.1-2.4-.4-1-.9-2-1.4-3-1.1-1-2.7-2.3-3.9-3.2-.8.5-1.6.9-2.6 1.4l-1.6-1c-.5.3-1 .5-1.6.8-1-.6-2.3-1.3-3.4-1.9v1.7c1 .6 2.4 1.3 3.4 1.9.6-.3 1.1-.5 1.6-.8.9.6 2.2 1.4 3.1 2-.1 4.5-.2 4.7-.6 7.6l-1.8.9-.4 2-1.6-1.1-1.2-3c-4.2-2.6-4.2-2.6-7-4-.5-.9-1-1.9-1.5-2.8l-.3 1.8c.5.9 1 1.9 1.4 2.9 1.6.9 3.7 2.1 5.3 3l1.2 3c1 .7 2.2 1.5 3.2 2.2 1.3-.6 2.6-1.2 3.8-1.8l.1.2.9 3c-.9 3.6-1.7 6.7-3.8 12 .3 2 .5 4 .7 6l1.1 1v2.9c-2.3 4.2-2.6 4.9-5.1 8.9-.1.9-.2 1.7-.3 2.6-2.7 4-2.7 4-4.4 6.3-.6.2-1.2.5-1.9.7-.6-.4-1.3-1.1-1.8-1.5v-2.3l-1.2-.8c0-.8-.1-1.6-.2-2.5l-1.3-.8c-.2-1.7-.5-3.5-.8-5.3l1-1.9c-.2-.9-.3-1.9-.5-2.8-1.5-.9-3.5-2-5.1-2.9-.5-2-1.1-4-1.7-6l-1.9-1c-1 .3-2 .7-2.9 1l-1 2.1c-2 .7-4 1.4-6.1 2.1-4-2-6.1-3-8.4-4.2-1.4-4.2-2.7-8.4-3.9-12.4 2.3-4.2 3-5.7 5.1-9.8 1-.3 1.9-.6 2.8-1l.8-1.9c1.8-.6 3.6-1.3 5.4-1.9 1.2.5 2.7 1.3 3.9 1.8.9-.3 1.7-.6 2.6-1l2 .9.6-1.9 2.4-.9 1.9.9c1.6-.6 3.1-1.2 4.6-1.9l.3-1.8c-.5-.9-1.1-1.8-1.7-2.6-1.4.6-2.8 1.2-4.3 1.8-1.1-.5-2.7-1.2-3.8-1.7-.8.3-1.5.6-2.3.9-1.1-.5-2.7-1.1-3.8-1.6l-.5 1.7c-1.1-.5-2.6-1.1-3.8-1.6l-.6 1.7c-.8.3-1.7.6-2.5.9-1.8 4.4-1.8 4.5-3.1 7.2-.9.3-1.9.6-2.8.9l-1.9-.9c-.3-.9-.6-1.9-.9-2.8l.9-1.8c1.8-.6 3.5-1.2 5.3-1.8-.4-.9-.7-1.7-1.1-2.6l-1.8-.8.7-1.6c.8-.3 1.6-.5 2.4-.8.3-.9.7-2.2 1-3.1l-1.3-2.2-1.7-.7c.8-3.1.9-3.7 1.1-6.3 2.1-.8 4.1-1.6 6-2.3l1.7.5-.4-1c1.8-.7 3.3-1.4 4.7-2.1-.5-.5-1.1-1.2-1.6-1.6.3-.1.6-.3.8-.4-.6-.4-1.4-.9-2-1.3.9-.5 1.5-.9 2-1.3 1 .1 2.3.3 3.3.5.2-.2.3-.3.3-.5v-.2l1.5.3c-.1-.1-.2-.2-.5-.3 6.9 2.1 24.8 7.7 35.1 29.9"/></g></svg>