<svg xmlns="http://www.w3.org/2000/svg" xmlns:xlink="http://www.w3.org/1999/xlink" viewBox="0 1320 2592 2632"><path fill="#123851" d="M2381 2615.2c0 287.8-112 549.4-294.9 743.6C1839 3529 1607 3596.8 1296 3676c-67.3 0-133.2 18-197.1 6.3C593.7 3589.6 211 3147.1 211 2615.2c0-599.2 485.8-1085 1085-1085s1085 485.7 1085 1085z"/><defs><circle id="a" cx="1298" cy="2615.2" r="1085"/></defs><clipPath id="b"><use xlink:href="#a" overflow="visible"/></clipPath><path clip-path="url(#b)" fill="#072D44" d="M1930 3368l-840.4 295.2 218.1 301.9c-77.9 38.4-172.2 6.3-210.6-71.7L472.4 2624.3c-38.4-77.9-6.3-172.2 71.7-210.6l642.3-316.1c77.9-38.4 172.2-6.3 210.6 71.7l624.7 1269.2c38.3 77.9-13.8-108.9-91.7-70.5z"/><circle clip-path="url(#b)" fill="#072D44" cx="2037.7" cy="2098.1" r="384.7"/><circle clip-path="url(#b)" fill="#EAEAEA" cx="2051.2" cy="2040.8" r="346.6"/><path clip-path="url(#b)" fill="#FFF" d="M2017.5 3515l-687 338.1c-65.6 32.3-144.9 5.3-177.2-60.3L506.7 2478.9c-32.3-65.6-5.3-144.9 60.3-177.2l687-338.1c65.6-32.3 144.9-5.3 177.2 60.3l646.7 1313.9c32.2 65.6 5.2 144.9-60.4 177.2z"/><path transform="rotate(-116.206 1288.334 2885.222)" clip-path="url(#b)" fill-rule="evenodd" clip-rule="evenodd" fill="#FFF" d="M666.6 2496.5h1243.5v777.4H666.6z"/><path transform="rotate(-116.206 1288.334 2885.222)" clip-path="url(#b)" fill-rule="evenodd" clip-rule="evenodd" fill="#EBEBEB" d="M666.6 2496.5h1243.5v777.4H666.6z"/><path clip-path="url(#b)" fill-rule="evenodd" clip-rule="evenodd" fill="#FFF" d="M1314.4 2179.4l47.9 620 44.4-2.7-49.3-638.5"/><path clip-path="url(#b)" fill="#FFF" d="M1422.5 2737.6c40.3 53.1 114.8 147.7 241.3 225.7 37.7 23.3 80.2 45.2 127.7 64.1l30.4 61.8c-70.2-23.4-130.9-53.1-183.1-85.3-133.9-82.7-212.2-181.9-254.4-237.6l38.1-28.7z"/><path clip-path="url(#b)" fill-rule="evenodd" clip-rule="evenodd" fill="#FFF" d="M1081.2 3344.6l25.2 51.2 421.5-904.1-25.2-51.2"/><path transform="rotate(63.794 1401.605 2829.456)" clip-path="url(#b)" fill-rule="evenodd" clip-rule="evenodd" fill="#FFF" d="M779.8 2807.2h1243.5v44.5H779.8z"/><path transform="rotate(-116.206 1259.727 2827.098)" clip-path="url(#b)" fill-rule="evenodd" clip-rule="evenodd" fill="#FFF" d="M1237.5 2438.4h44.5v777.4h-44.5z"/><circle clip-path="url(#b)" fill-rule="evenodd" clip-rule="evenodd" fill="#FFF" cx="1373" cy="2771.3" r="131.1"/><circle clip-path="url(#b)" fill-rule="evenodd" clip-rule="evenodd" fill="#F9886C" cx="1373" cy="2771.3" r="88.4"/><path clip-path="url(#b)" fill-rule="evenodd" clip-rule="evenodd" fill="#FFF" d="M952.6 3083.3l21.1 43 263.6-11.3 6.1-44.1M754.7 2681.2l19.7 40.1 507.1-135.3-18.5-40.4"/><path clip-path="url(#b)" fill-rule="evenodd" clip-rule="evenodd" fill="#FFF" d="M771.4 2697.1l42.6 2.3 89.8-317.9-50.1 24.7M886.5 2974.9l8.8 22.4 2.2.1M834.6 2843.6l41.9-20.9-25.3-42.8-38.5 19.2"/><path clip-path="url(#b)" fill-rule="evenodd" clip-rule="evenodd" fill="#FFF" d="M1310.8 2623.8l-17.3-47.6-464.8 214 17.3 47.6"/><path clip-path="url(#b)" fill-rule="evenodd" clip-rule="evenodd" fill="#FFF" d="M1029.3 2950.7l40-29.6-83.8-166.5-37.8 34.4M1168.5 2876.5l40-29.6-83.8-166.4-37.7 34.4"/><path clip-path="url(#b)" fill-rule="evenodd" clip-rule="evenodd" fill="#EBEBEB" d="M697.7 2483l-32.7 16 28.4 57.8"/><path clip-path="url(#b)" fill-rule="evenodd" clip-rule="evenodd" fill="#FFF" d="M1583 3175.1l-21.4-39-431.2 140.8 21.3 39.1M1152.5 3489.5l506.9-170.6-21.3-39.1-505.1 170"/><path clip-path="url(#b)" fill-rule="evenodd" clip-rule="evenodd" fill="#FFF" d="M1160.2 3471.6l57.8-10.1 87.6-219.5-57.7 10M1869.4 3292.1l-185.1-315.3-41.9 25.8 183.1 311.2"/><path clip-path="url(#b)" fill-rule="evenodd" clip-rule="evenodd" fill="#FFF" d="M1819.1 3240.3l-21.3-39.1-167.1 90.2 21.3 39.1M1693.9 3020.5l-29-54.7-126.4 161.4 29 54.6M1491.2 2993.3l-11.2-49.1-281.3 138.3 16 46.9M1343.1 2296.1l24.2 43.4 71.6-28.6-21.2-43"/><path clip-path="url(#b)" fill-rule="evenodd" clip-rule="evenodd" fill="#FBB03B" d="M1143.4 3316.4l-37 79.4 26.6 54 41.5-14 60.7-152M993.2 2770l66 131 97.5-48-64.8-128.4"/><path clip-path="url(#b)" fill-rule="evenodd" clip-rule="evenodd" fill="#EBEBEB" d="M1357.4 2158.2l9.9 128.7 50.4-19-55.2-112.2"/><path clip-path="url(#b)" fill-rule="evenodd" clip-rule="evenodd" fill="#E55E5E" d="M824.4 2662.6l79.4-281.1 203.3-100 131.3 270.6"/><path clip-path="url(#b)" fill-rule="evenodd" clip-rule="evenodd" fill="#EBEBEB" d="M1259.2 2592l-406.5 187.1-28-71.2"/><path clip-path="url(#b)" fill-rule="evenodd" clip-rule="evenodd" fill="#E55E5E" d="M1670.5 3050.4l-83.2 106.1 61.6 125.1 117.3-64.8"/><circle clip-path="url(#b)" fill-rule="evenodd" clip-rule="evenodd" fill="#ECECEC" cx="1604.9" cy="3543.5" r="52"/><path clip-path="url(#b)" fill-rule="evenodd" clip-rule="evenodd" fill="#ECECEC" d="M1030.7 2213.7l-137.2 67.5c-5.9 2.9-13 .5-15.9-5.4s-.5-13 5.4-15.9l137.2-67.5c5.9-2.9 13-.5 15.9 5.4 2.9 5.9.5 13-5.4 15.9z"/><path clip-path="url(#b)" fill="#FFF" d="M1880.2 1946.8l-103.5-103.5c-19.3-19.3-19.3-50.5 0-69.8 19.3-19.3 50.5-19.3 69.8 0L1950 1877c19.3 19.3 19.3 50.5 0 69.8-19.2 19.3-50.5 19.3-69.8 0z"/><circle clip-path="url(#b)" fill="#D2D2D2" cx="2040.7" cy="2069.7" r="252.1"/><circle clip-path="url(#b)" fill="#FFF" cx="2051.2" cy="2040.8" r="252.1"/><path clip-path="url(#b)" fill="#351A06" d="M2038.1 1881.9c103.7 0 187.8 84.1 187.8 187.8 0 22.1-3.8 43.2-10.8 62.9 15.2-27.1 23.9-58.4 23.9-91.7 0-103.7-84.1-187.8-187.8-187.8-81.7 0-151.1 52.1-177 124.9 32.2-57.3 93.5-96.1 163.9-96.1z"/><path clip-path="url(#b)" fill="#42210B" d="M2051.2 2228.6c70.4 0 131.7-38.8 163.9-96.1 7-19.7 10.8-40.8 10.8-62.9 0-103.7-84.1-187.8-187.8-187.8-70.4 0-131.7 38.8-163.9 96.1-7 19.7-10.8 40.8-10.8 62.9 0 103.8 84.1 187.8 187.8 187.8z"/></svg>