<svg xmlns="http://www.w3.org/2000/svg" xmlns:xlink="http://www.w3.org/1999/xlink" viewBox="0 0 156.5 156.5"><defs><path id="a" d="M81.5 15.6c34.2 0 62 27.8 62 62s-27.8 62-62 62-62-27.8-62-62c-.1-34.2 27.7-62 62-62"/></defs><clipPath id="b"><use xlink:href="#a" overflow="visible"/></clipPath><path clip-path="url(#b)" fill-rule="evenodd" clip-rule="evenodd" fill="#11364F" d="M82.5 15.6c34.2 0 62 27.8 62 62s-27.8 62-62 62-62-27.8-62-62c-.1-34.2 27.7-62 62-62"/><path clip-path="url(#b)" fill="#FFF" d="M22.3 60.5c-.2 0-.3.1-.4.3 0 .2.1.4.3.5h.1c.2 0 .3-.1.4-.3 0-.2-.1-.4-.4-.5"/><path clip-path="url(#b)" fill="#597384" d="M48.6 66.5c-.2 0-.3.1-.4.3 0 .2.1.4.3.5h.1c.1 0 .3-.1.3-.2V67h.1c0-.3-.1-.5-.4-.5.1 0 0 0 0 0m-1.9-.5c-.2 0-.3.1-.4.3 0 .2.1.4.3.5h.1c.2 0 .3-.1.4-.3.1-.2-.1-.4-.4-.5.1 0 .1 0 0 0m-1.9-.4c-.2 0-.3.1-.4.3 0 .2.1.4.3.5h.1c.2 0 .3-.1.4-.3.1-.2-.1-.4-.4-.5.1 0 .1 0 0 0m-1.8-.4c-.2 0-.3.1-.4.3 0 .2.1.4.3.5h.1c.2 0 .3-.1.4-.3 0-.2-.1-.4-.4-.5m-1.9-.4c-.2 0-.3.1-.4.3 0 .2.1.4.3.5h.1c.2 0 .3-.1.4-.3 0-.3-.1-.5-.4-.5m-1.9-.5c-.2 0-.3.1-.4.3 0 .2.1.4.3.5h.1c.2 0 .3-.1.4-.3 0-.2-.1-.4-.4-.5.1 0 0 0 0 0m-1.9-.4c-.2 0-.3.1-.4.3 0 .2.1.4.3.5h.1c.2 0 .3-.1.4-.3 0-.2-.1-.4-.4-.5.1 0 .1 0 0 0m-1.9-.4c-.2 0-.3.1-.4.3 0 .2.1.4.3.5h.1c.2 0 .3-.1.4-.3.1-.2-.1-.4-.4-.5.1 0 .1 0 0 0m-1.8-.4c-.2 0-.3.1-.4.3 0 .2.1.4.3.5h.1c.2 0 .3-.1.4-.3 0-.3-.1-.5-.4-.5m-1.9-.5c-.2 0-.3.1-.4.3 0 .2.1.4.3.5h.1c.2 0 .3-.1.4-.3 0-.2-.1-.4-.4-.5m-1.9-.4c-.2 0-.3.1-.4.3 0 .2.1.4.3.5h.1c.2 0 .3-.1.4-.3 0-.2-.1-.4-.4-.5.1 0 0 0 0 0m-1.9-.4c-.2 0-.3.1-.4.3 0 .2.1.4.3.5h.1c.2 0 .3-.1.4-.3 0-.2-.1-.4-.4-.5.1 0 0 0 0 0m-1.9-.4c-.2 0-.3.1-.4.3 0 .2.1.4.3.5h.1c.2 0 .3-.1.4-.3.1-.3-.1-.5-.4-.5.1 0 .1 0 0 0m-1.8-.5c-.2 0-.3.1-.4.3 0 .2.1.4.3.5h.1c.2 0 .3-.1.4-.3 0-.2-.2-.4-.4-.5M94.2 43.6c-.1 0-.3.1-.3.2-.1.2 0 .4.2.5h.2c.1 0 .3-.1.3-.2.1-.2 0-.4-.2-.5h-.2m1-1.7c-.1 0-.3.1-.3.2-.1.2 0 .4.2.5h.2c.1 0 .3-.1.3-.2.1-.2 0-.4-.2-.5h-.2m.9-1.7c-.1 0-.3.1-.3.2-.1.2 0 .4.2.5h.2c.1 0 .3-.1.3-.2.1-.2 0-.4-.2-.5h-.2m.9-1.7c-.1 0-.3.1-.3.2-.1.2 0 .4.2.5h.2c.1 0 .3-.1.3-.2.1-.2 0-.4-.2-.5H97m.9-1.7c-.1 0-.3.1-.3.2-.1.2 0 .4.2.5h.2c.1 0 .3-.1.3-.2.1-.2 0-.4-.2-.5h-.2m.9-1.7c-.1 0-.3.1-.3.2-.1.2 0 .4.2.5h.2c.1 0 .3-.1.3-.2.1-.2 0-.4-.2-.5h-.2m.9-1.7c-.1 0-.3.1-.3.2-.1.2 0 .4.2.5h.2c.1 0 .3-.1.3-.2.1-.2 0-.4-.2-.5h-.2m.9-1.7c-.1 0-.3.1-.3.2-.1.2 0 .4.2.5h.2c.1 0 .3-.1.3-.2.1-.2 0-.4-.2-.5h-.2m.9-1.7c-.1 0-.3.1-.3.2-.1.2 0 .4.2.5h.2c.1 0 .3-.1.3-.2.1-.2 0-.4-.2-.5h-.2m.9-1.7c-.1 0-.3.1-.3.2-.1.2 0 .4.2.5h.2c.1 0 .3-.1.3-.2.1-.2 0-.4-.2-.5h-.2m.9-1.7c-.1 0-.3.1-.3.2-.1.2 0 .4.2.5h.2c.1 0 .3-.1.3-.2.1-.2 0-.4-.2-.5h-.2m.9-1.7c-.1 0-.3.1-.3.2-.1.2 0 .4.2.5h.2c.1 0 .3-.1.3-.2.1-.2 0-.4-.2-.5h-.2m.9-1.7c-.1 0-.3.1-.3.2-.1.2 0 .4.2.5h.2c.1 0 .3-.1.3-.2.1-.2 0-.4-.2-.5h-.2m.9-1.7c-.1 0-.3.1-.3.2-.1.2 0 .4.2.5h.2c.1 0 .3-.1.3-.2.1-.2 0-.4-.2-.5h-.2M111.3 50.1c-.1 0-.2 0-.3.1-.2.2-.3.5-.1.7.1.1.3.2.4.2.1 0 .2 0 .3-.1.2-.2.3-.5.1-.7-.1-.1-.3-.2-.4-.2m1.7-1.2c-.1 0-.2 0-.3.1-.2.2-.3.5-.1.7.1.1.3.2.4.2.1 0 .2 0 .3-.1.2-.2.3-.5.1-.7-.1-.1-.2-.2-.4-.2m1.7-1.2c-.1 0-.2 0-.3.1-.2.2-.3.5-.1.7.1.1.3.2.4.2.1 0 .2 0 .3-.1.2-.2.3-.5.1-.7 0-.1-.2-.2-.4-.2m1.8-1.2c-.1 0-.2 0-.3.1-.2.2-.3.5-.1.7.1.1.3.2.4.2.1 0 .2 0 .3-.1.2-.2.3-.5.1-.7-.1-.1-.3-.2-.4-.2m1.7-1.2c-.1 0-.2 0-.3.1-.2.2-.3.5-.1.7.1.1.3.2.4.2.1 0 .2 0 .3-.1.2-.2.3-.5.1-.7-.1-.1-.2-.2-.4-.2m1.7-1.2c-.1 0-.2 0-.3.1-.2.2-.3.5-.1.7.1.1.3.2.4.2.1 0 .2 0 .3-.1.2-.2.3-.5.1-.7-.1-.1-.2-.2-.4-.2m1.8-1.2c-.1 0-.2 0-.3.1-.2.2-.3.5-.1.7.1.1.3.2.4.2.1 0 .2 0 .3-.1.2-.2.3-.5.1-.7-.1-.1-.3-.2-.4-.2m1.7-1.2c-.1 0-.2 0-.3.1-.2.2-.3.5-.1.7.1.1.3.2.4.2.1 0 .2 0 .3-.1.2-.2.3-.5.1-.7-.1-.1-.2-.2-.4-.2m1.7-1.2c-.1 0-.2 0-.3.1-.2.2-.3.5-.1.7.1.1.3.2.4.2.1 0 .2 0 .3-.1.2-.2.3-.5.1-.7-.1-.1-.2-.2-.4-.2m1.7-1.2c-.1 0-.2 0-.3.1-.2.2-.3.5-.1.7.1.1.3.2.4.2.1 0 .2 0 .3-.1.2-.2.3-.5.1-.7 0-.1-.2-.2-.4-.2m1.8-1.2c-.1 0-.2 0-.3.1-.2.2-.3.5-.1.7.1.1.3.2.4.2.1 0 .2 0 .3-.1.2-.2.3-.5.1-.7-.1-.1-.3-.2-.4-.2M134 109.6c-.1 0-.2.1-.3.2-.1.2-.1.4.1.5.1 0 .1.1.2.1s.2 0 .3-.1c0-.1.1-.1.1-.2 0-.2 0-.3-.2-.4-.1-.1-.2-.1-.2-.1m-1.6-1.1c-.1 0-.2.1-.3.2-.1.2-.1.4.1.5.1 0 .1.1.2.1s.2-.1.3-.2c.1-.2.1-.4-.1-.5-.1-.1-.2-.1-.2-.1m-1.6-1.1c-.1 0-.2.1-.3.2-.1.2-.1.4.1.5.1 0 .1.1.2.1s.2-.1.3-.2c.1-.2.1-.4-.1-.5-.1-.1-.2-.1-.2-.1m-1.6-1.1c-.1 0-.2.1-.3.2-.1.2-.1.4.1.5.1 0 .1.1.2.1s.2-.1.3-.2c.1-.2.1-.4-.1-.5-.1 0-.2-.1-.2-.1m-1.6-1c-.1 0-.2.1-.3.2-.1.2-.1.4.1.5.1 0 .1.1.2.1s.2-.1.3-.2c.1-.2.1-.4-.1-.5-.1-.1-.2-.1-.2-.1m-1.6-1.1c-.1 0-.2.1-.3.2-.1.2-.1.4.1.5.1 0 .1.1.2.1s.2-.1.3-.2c.1-.2.1-.4-.1-.5-.1-.1-.2-.1-.2-.1m-1.6-1.1c-.1 0-.2.1-.3.2-.1.2-.1.4.1.5.1 0 .1.1.2.1s.2-.1.3-.2c.1-.2.1-.4-.1-.5-.1-.1-.2-.1-.2-.1m-1.7-1.1c-.1 0-.2.1-.3.2-.1.2-.1.4.1.5.1 0 .1.1.2.1s.2-.1.3-.2c.1-.2.1-.4-.1-.5 0 0-.1-.1-.2-.1m-1.6-1c-.1 0-.2.1-.3.2-.1.2-.1.4.1.5.1 0 .1.1.2.1s.2-.1.3-.2c.1-.2.1-.4-.1-.5 0-.1-.1-.1-.2-.1m-1.6-1.1c-.1 0-.2.1-.3.2-.1.2-.1.4.1.5.1 0 .1.1.2.1s.2-.1.3-.2c.1-.2.1-.4-.1-.5 0-.1-.1-.1-.2-.1m-1.6-1.1c-.1 0-.2.1-.3.2-.1.2-.1.4.1.5.1 0 .1.1.2.1s.2-.1.3-.2c.1-.2.1-.4-.1-.5 0-.1-.1-.1-.2-.1m-1.6-1c-.1 0-.2.1-.3.2-.1.2-.1.4.1.5.1 0 .1.1.2.1s.2-.1.3-.2c.1-.2.1-.4-.1-.5 0-.1-.1-.1-.2-.1m-1.6-1.1c-.1 0-.2.1-.3.2-.1.2-.1.4.1.5.1 0 .1.1.2.1s.2-.1.3-.2c.1-.2.1-.4-.1-.5 0-.1-.1-.1-.2-.1m-1.6-1.1c-.1 0-.2.1-.3.2-.1.2-.1.4.1.5.1 0 .1.1.2.1s.2-.1.3-.2c.1-.2.1-.4-.1-.5 0-.1-.1-.1-.2-.1m-1.6-1.1c-.1 0-.2.1-.3.2-.1.2-.1.4.1.5.1 0 .1.1.2.1s.2-.1.3-.2c.1-.2.1-.4-.1-.5 0 0-.1-.1-.2-.1m-1.6-1c-.1 0-.2.1-.3.2-.1.2-.1.4.1.5.1 0 .1.1.2.1s.2-.1.3-.2c.1-.2.1-.4-.1-.5 0-.1-.1-.1-.2-.1m-1.6-1.1c-.1 0-.2.1-.3.2-.1.2-.1.4.1.5.1 0 .1.1.2.1s.2-.1.3-.2c.1-.2.1-.4-.1-.5 0-.1-.1-.1-.2-.1m-1.6-1.1c-.1 0-.2.1-.3.2-.1.2-.1.4.1.5.1 0 .1.1.2.1s.2-.1.3-.2c.1-.2.1-.4-.1-.5 0-.1-.1-.1-.2-.1m-1.6-1.1c-.1 0-.2.1-.3.2-.1.2-.1.4.1.5.1 0 .1.1.2.1s.2-.1.3-.2c.1-.2.1-.4-.1-.5 0 0-.1-.1-.2-.1m-1.6-1c-.1 0-.2.1-.3.2-.1.2-.1.4.1.5.1 0 .1.1.2.1s.2-.1.3-.2c.1-.2.1-.4-.1-.5 0-.1-.1-.1-.2-.1m-1.6-1.1c-.1 0-.2.1-.3.2-.1.2-.1.4.1.5.1 0 .1.1.2.1s.2-.1.3-.2c.1-.2.1-.4-.1-.5 0-.1-.1-.1-.2-.1m-1.6-1.1c-.1 0-.2.1-.3.2-.1.2-.1.4.1.5.1 0 .1.1.2.1s.2-.1.3-.2c.1-.2.1-.4-.1-.5 0-.1-.1-.1-.2-.1m-1.4-1l-.5.6.1.1c.1 0 .1.1.2.1s.2-.1.3-.2c.2-.2.1-.5-.1-.6M142.6 67.4c-.1.1-.2.2-.2.4s.2.4.4.5c-.1-.3-.1-.6-.2-.9m-27.7-.1h-.2l.1.5-.3.3c.1.1.2.2.4.2.3 0 .5-.2.5-.5s-.2-.5-.5-.5m2 0c-.3 0-.5.2-.5.5s.2.5.5.5.5-.2.5-.5-.2-.5-.5-.5m2 0c-.3 0-.5.2-.5.5s.2.5.5.5.5-.2.5-.5-.2-.5-.5-.5m2 0c-.3 0-.5.2-.5.5s.2.5.5.5.5-.2.5-.5-.2-.5-.5-.5m2 0c-.3 0-.5.2-.5.5s.2.5.5.5.5-.2.5-.5-.2-.5-.5-.5m2 0c-.3 0-.5.2-.5.5s.2.5.5.5.5-.2.5-.5-.2-.5-.5-.5m2 0c-.3 0-.5.2-.5.5s.2.5.5.5.5-.2.5-.5-.2-.5-.5-.5m2 0c-.3 0-.5.2-.5.5s.2.5.5.5.5-.2.5-.5-.2-.5-.5-.5m2 0c-.3 0-.5.2-.5.5s.2.5.5.5.5-.2.5-.5-.2-.5-.5-.5m2 0c-.3 0-.5.2-.5.5s.2.5.5.5.5-.2.5-.5-.2-.5-.5-.5m2 0c-.3 0-.5.2-.5.5s.2.5.5.5.5-.2.5-.5-.2-.5-.5-.5m2 0c-.3 0-.5.2-.5.5s.2.5.5.5.5-.2.5-.5-.2-.5-.5-.5m2 0c-.3 0-.5.2-.5.5s.2.5.5.5.5-.2.5-.5-.2-.5-.5-.5m2 0c-.3 0-.5.2-.5.5s.2.5.5.5.5-.2.5-.5-.2-.5-.5-.5M93.8 136.9c-.3 0-.4.2-.4.4s.2.3.4.3h.1c.2 0 .4-.2.3-.4 0-.2-.2-.3-.4-.3m-.2-1.9c-.3 0-.4.2-.4.4s.2.3.4.3h.1c.2 0 .4-.2.3-.4 0-.2-.2-.3-.4-.3m-.3-1.9c-.3 0-.4.2-.4.4s.2.3.4.3h.1c.2 0 .4-.2.3-.4 0-.2-.2-.3-.4-.3m-.2-2c-.3 0-.4.2-.4.4s.2.3.4.3h.1c.2 0 .4-.2.3-.4-.1-.1-.2-.3-.4-.3m-.3-1.9c-.3 0-.4.2-.4.4s.2.3.4.3h.1c.2 0 .4-.2.3-.4 0-.1-.2-.3-.4-.3m-.2-1.9c-.3 0-.4.2-.4.4s.2.3.4.3h.1c.2 0 .4-.2.3-.4-.1-.1-.2-.3-.4-.3m-.3-1.9c-.3 0-.4.2-.4.4s.2.3.4.3h.1c.2 0 .4-.2.3-.4 0-.2-.2-.3-.4-.3m-.2-1.9c-.3 0-.4.2-.4.4s.2.3.4.3h.1c.2 0 .4-.2.3-.4-.1-.2-.2-.3-.4-.3m-.3-1.9c-.3 0-.4.2-.4.4s.2.3.4.3h.1c.2 0 .4-.2.3-.4 0-.2-.2-.3-.4-.3m-.2-1.9c-.3 0-.4.2-.4.4s.2.3.4.3h.1c.2 0 .4-.2.3-.4-.1-.2-.2-.3-.4-.3m-.3-1.9c-.3 0-.4.2-.4.4s.2.3.4.3h.1c.2 0 .4-.2.3-.4 0-.2-.2-.3-.4-.3m-.2-2c-.3 0-.4.2-.4.4s.2.3.4.3h.1c.2 0 .4-.2.3-.4-.1-.1-.2-.3-.4-.3m-.3-1.9c-.3 0-.4.2-.4.4s.2.3.4.3h.1c.2 0 .4-.2.3-.4 0-.1-.2-.3-.4-.3m-.2-1.9c-.3 0-.4.2-.4.4s.2.3.4.3h.1c.2 0 .4-.2.3-.4-.1-.1-.2-.3-.4-.3m-.3-1.9c-.3 0-.4.2-.4.4s.2.3.4.3h.1c.2 0 .4-.2.3-.4 0-.2-.2-.3-.4-.3m-.2-1.9c-.3 0-.4.2-.4.4s.2.3.4.3h.1c.2 0 .4-.2.3-.4-.1-.2-.2-.3-.4-.3m-.3-1.9c-.3 0-.4.2-.4.4s.2.3.4.3h.1c.2 0 .4-.2.3-.4 0-.2-.2-.3-.4-.3m-.2-1.9c-.3 0-.4.2-.4.4s.2.3.4.3h.1c.2 0 .4-.2.3-.4-.1-.2-.2-.3-.4-.3m-.3-1.9c-.3 0-.4.2-.4.4s.2.3.4.3h.1c.2 0 .4-.2.3-.4 0-.2-.2-.3-.4-.3m-.2-2s-.1 0 0 0c-.3 0-.4.2-.4.4s.2.3.4.3h.1c.2 0 .4-.2.3-.4-.1-.1-.2-.3-.4-.3m-.3-1.9c-.3 0-.4.2-.4.4s.2.3.4.3h.1c.2 0 .4-.2.3-.4 0-.1-.2-.3-.4-.3M61.8 134.7c-.2 0-.3.1-.4.3-.1.2 0 .4.3.5h.1c.2 0 .3-.1.4-.3.1-.2 0-.4-.3-.5h-.1m.6-1.9c-.2 0-.3.1-.4.3-.1.2.1.4.3.5h.1c.2 0 .3-.1.4-.3.1-.2-.1-.4-.3-.5h-.1m.6-1.8c-.2 0-.3.1-.4.3-.1.2 0 .4.3.5h.1c.2 0 .3-.1.4-.3.1-.2 0-.4-.3-.5H63m.6-1.9c-.2 0-.3.1-.4.3-.1.2 0 .4.3.5h.1c.2 0 .3-.1.4-.3.1-.2 0-.4-.3-.5h-.1m.5-1.8c-.2 0-.3.1-.4.3-.1.2 0 .4.3.5h.1c.2 0 .3-.1.4-.3.1-.2 0-.4-.3-.5h-.1m.6-1.8c-.2 0-.3.1-.4.3-.1.2 0 .4.3.5h.1c.2 0 .3-.1.4-.3.1-.2 0-.4-.3-.5h-.1m.6-1.9c-.2 0-.3.1-.4.3-.1.2 0 .4.3.5h.1c.2 0 .3-.1.4-.3.1-.2 0-.4-.3-.5h-.1m.6-1.8c-.2 0-.3.1-.4.3-.1.2.1.4.3.5h.1c.2 0 .3-.1.4-.3.1-.2-.1-.4-.3-.5h-.1m.5-1.9c-.2 0-.3.1-.4.3-.1.2.1.4.3.5h.1c.2 0 .3-.1.4-.3.1-.2-.1-.4-.3-.5h-.1m.6-1.8c-.2 0-.3.1-.4.3-.1.2 0 .4.3.5h.1c.2 0 .3-.1.4-.3.1-.2 0-.4-.3-.5H67m.6-1.8c-.2 0-.3.1-.4.3-.1.2 0 .4.3.5h.1c.2 0 .3-.1.4-.3.1-.2 0-.4-.3-.5h-.1"/><path clip-path="url(#b)" fill="#4EAA7C" d="M94.2 43.6l-15 31.3 35.2-7v-.1c0-.1.4-.4.5-.5l-20.8-23 .5-.2"/><path clip-path="url(#b)" fill="#56B081" d="M114.5 67.5c-.1.1-.1.2-.1.3v.1l.4-.1-.3-.3"/><path clip-path="url(#b)" fill="#419172" d="M94.1 44.3l20.5 23.1c0-.1.1-.1.2-.1l-4.4-16.7-16.3-6.3c0 .1 0 .1 0 0"/><path clip-path="url(#b)" fill="#57A382" d="M94.1 44.3c0 .1 0 .1 0 0M114.7 67.4c-.1 0-.1.1-.2.1l.3.3-.1-.4"/><path clip-path="url(#b)" fill="#5FCA94" d="M98.9 86l15.7-17.8c-.1-.1-.1-.2-.1-.3l-33.9 6.2 8.1 23.5 9.7-11.1m-17-11.8c-.1.1-.2.2-.3.2-.1 0-.1 0-.2-.1-.2-.1-.2-.4-.1-.5.1-.1.2-.2.3-.2.1 0 .1 0 .2.1.2.1.2.4.1.5zm1.6 1.1c-.1.1-.2.2-.3.2-.1 0-.1 0-.2-.1-.2-.1-.2-.4-.1-.5.1-.1.2-.2.3-.2.1 0 .1 0 .2.1.2.1.2.3.1.5z"/><path clip-path="url(#b)" fill="#6ED69E" d="M114.8 67.8l-.4.1c0 .1.1.2.1.3l.3-.4"/><path clip-path="url(#b)" fill="#52BC82" d="M81.1 74.1l-13.2 41.6 21.5-18.5-8.3-23.1"/><path clip-path="url(#b)" fill="#419172" d="M94.1 44.3L49 66.9v.1l32.5 8.3 12.6-31"/><path clip-path="url(#b)" fill="#57A382" d="M94.1 44.3"/><path clip-path="url(#b)" fill="#489E77" d="M49 66.9c0 .1 0 .1 0 0l18.9 48.8 13.4-41.5L49 66.9"/><path clip-path="url(#b)" fill="#57AA82" d="M48.9 66.9v.1c.1 0 .1 0 0-.1"/><circle clip-path="url(#b)" fill="#FFF" cx="48.9" cy="66.9" r="3.2"/><circle clip-path="url(#b)" fill="#FFF" cx="94.1" cy="44.3" r="3.2"/><circle clip-path="url(#b)" fill="#FFF" cx="110.3" cy="50.7" r="3.2"/><circle clip-path="url(#b)" fill="#FFF" cx="114.8" cy="67.8" r="3.2"/><circle clip-path="url(#b)" fill="#FFF" cx="80.5" cy="74.1" r="3.2"/><circle clip-path="url(#b)" fill="#FFF" cx="88.7" cy="97.6" r="3.2"/><circle clip-path="url(#b)" fill="#FFF" cx="67.9" cy="115.7" r="3.2"/></svg>