<svg xmlns="http://www.w3.org/2000/svg" xmlns:xlink="http://www.w3.org/1999/xlink" viewBox="0 0 156.5 156.5"><defs><path id="a" d="M81.5 15.6c34.2 0 62 27.8 62 62s-27.8 62-62 62-62-27.8-62-62c-.1-34.2 27.7-62 62-62"/></defs><clipPath id="b"><use xlink:href="#a" overflow="visible"/></clipPath><path clip-path="url(#b)" fill-rule="evenodd" clip-rule="evenodd" fill="#3AB2CF" d="M81.5 15.6c34.2 0 62 27.8 62 62s-27.8 62-62 62-62-27.8-62-62c-.1-34.2 27.7-62 62-62"/><path clip-path="url(#b)" fill="#3887BE" d="M101.1 48.2l-5.8-6.9h-47c-2.8 0-5 2.3-5 5v95.9c0 2.8 2.3 5 5 5h63.9c2.8 0 5-2.3 5-5V64l-11.4-8.8-4.7-7"/><circle clip-path="url(#b)" fill="#3C4E5A" cx="63.9" cy="86.1" r=".4"/><path clip-path="url(#b)" fill="#3C4E5A" d="M63.9 87c-.5 0-.9-.4-.9-.9s.4-.9.9-.9.9.4.9.9-.4.9-.9.9zm0-1.6c-.4 0-.7.3-.7.7s.3.7.7.7.7-.3.7-.7-.3-.7-.7-.7z"/><circle clip-path="url(#b)" fill="#3C4E5A" cx="63.2" cy="70.7" r=".4"/><path clip-path="url(#b)" fill="#3C4E5A" d="M63.2 71.6c-.5 0-.9-.4-.9-.9s.4-.9.9-.9.9.4.9.9-.4.9-.9.9zm0-1.6c-.4 0-.7.3-.7.7s.3.7.7.7.7-.3.7-.7-.3-.7-.7-.7z"/><circle clip-path="url(#b)" fill="#3C4E5A" cx="57.4" cy="66.1" r=".4"/><path clip-path="url(#b)" fill="#3C4E5A" d="M57.4 67c-.5 0-.9-.4-.9-.9s.4-.9.9-.9.9.4.9.9-.4.9-.9.9zm0-1.6c-.4 0-.7.3-.7.7s.3.7.7.7c.4 0 .7-.3.7-.7s-.3-.7-.7-.7z"/><g clip-path="url(#b)"><defs><path id="c" d="M46.9 53.7v50.4c0 1.4 1.3 50.1 2.7 50.1h62.2c1.4 0 4.2-36.7 4.2-39l-14.7-59.9L88 55l-41.1-1.3"/></defs><clipPath id="d"><use xlink:href="#c" overflow="visible"/></clipPath><path clip-path="url(#d)" fill="#56B881" d="M85.9 71.3h-3"/><path clip-path="url(#d)" fill="#FFF" d="M98.7 108l-1.6-1.6c-.2-.2-.5-.3-.8-.3H95c-.3 0-.6-.1-.8-.3l-3.8-3.8c-.2-.2-.5-.3-.8-.3h-1.3c-.3 0-.6-.1-.8-.3l-1.6-1.6c-.2-.2-.5-.3-.8-.3h-3.6c-.3 0-.6.1-.8.3l-.5.5c-.2.2-.5.3-.8.3h-1.3c-.3 0-.6-.1-.8-.3l-4.9-4.9c-.2-.2-.5-.3-.8-.3h-1.3c-.3 0-.6-.1-.8-.3l-1.6-1.6c-.2-.2-.3-.5-.3-.8v-1.3c0-.3.1-.6.3-.8l1.6-1.6c.2-.2.5-.3.8-.3h5.8c.3 0 .6-.1.8-.3l8.3-8.3c.2-.2.5-.3.8-.3h1.3c.3 0 .6-.1.8-.3l3.8-3.8c.2-.2.5-.3.8-.3H94c.3 0 .6-.1.8-.3l1.1-1.1c.4-.4.4-1.1 0-1.6L94.8 71c-.2-.2-.5-.3-.8-.3h-.7c-.6 0-1.1-.5-1.1-1.1 0-.6-.5-1.1-1.1-1.1h-.7c-.3 0-.6.1-.8.3l-4.5 4.5c-.4.4-1.1.4-1.6 0l-2.9-2.9c-.4-.4-.4-1.1 0-1.6l1.1-1.1c.2-.2.5-.3.8-.3H84c.3 0 .6-.1.8-.3l.5-.5c.2-.2.5-.3.8-.3h1.3c.3 0 .6-.1.8-.3l1.1-1.1c.4-.4 1.1-.4 1.6 0l2.9 2.9c.4.4 1.1.4 1.6 0l1.1-1.1c.2-.2.3-.5.3-.8V64c0-.3-.1-.6-.3-.8L95.3 62c-.4-.4-.4-1.1 0-1.6l1.8-1.8c.7-.7.2-1.9-.8-1.9h-3.6c-.3 0-.6.1-.8.3l-3.8 3.8c-.2.2-.5.3-.8.3H86c-.3 0-.6.1-.8.3l-1.1 1.1c-.4.4-1.1.4-1.6 0l-1.1-1.1c-.2-.2-.5-.3-.8-.3h-5.8c-.3 0-.6.1-.8.3L72.4 63c-.2.2-.5.3-.8.3h-5.8c-.3 0-.6-.1-.8-.3l-.5-.5c-.2-.2-.5-.3-.8-.3H58c-.3 0-.6.1-.8.3l-.5.5c-.2.2-.5.3-.8.3h-1.3c-.3 0-.6.1-.8.3l-4.5 4.5c-.4.4-.4 1.1 0 1.6.2.2.5.3.8.3h1.3c.3 0 .6-.1.8-.3l1.6-1.6c.2-.2.5-.3.8-.3h3.6c.3 0 .6.1.8.3l1.6 1.6c.2.2.3.5.3.8v3.6c0 .3-.1.6-.3.8L59 76.6c-.2.2-.3.5-.3.8v1.3c0 .3-.1.6-.3.8l-1.6 1.6c-.2.2-.3.5-.3.8v1.3c0 .3.1.6.3.8l3.8 3.8c.2.2.3.5.3.8v1.3c0 .3.1.6.3.8l6.1 6.1c.2.2.5.3.8.3h1.3c.3 0 .6.1.8.3l3.8 3.8c.2.2.5.3.8.3h1.3c.3 0 .6.1.8.3l.5.5c.2.2.3.5.3.8v1.3c0 .3-.1.6-.3.8l-.5.5c-.2.2-.3.5-.3.8v3.6c0 .3.1.6.3.8l.5.5c.2.2.3.5.3.8v1.3c0 .3.1.6.3.8l4.9 4.9c.2.2.3.5.3.8v6.6c0 .3.1.6.3.8l1.6 1.6c.2.2.3.5.3.8v3.6c0 .3.1.6.3.8l1.6 1.6c.2.2.5.3.8.3h.7c.6 0 1.1-.5 1.1-1.1v-.7c0-.3-.1-.6-.3-.8l-.5-.5c-.2-.2-.3-.5-.3-.8v-1.3c0-.3.1-.6.3-.8l2.7-2.7c.2-.2.3-.5.3-.8v-1.3c0-.3.1-.6.3-.8l3.8-.1c.2-.2.3-.5.3-.8v-1.3c0-.3.1-.6.3-.8l3.8-3.8c.2-.2.3-.5.3-.8v-1.3c0-.3.1-.6.3-.8l1.6-1.6c.2-.2.3-.5.3-.8V111c0-.3-.1-.6-.3-.8l-1.6-1.6c-.2-.2-.5-.3-.8-.3h-1.3c.1 0-.2-.1-.4-.3"/></g><path clip-path="url(#b)" fill="#E5E5E5" d="M66.4 80.8h-3.2c-.1 0-.2-.1-.2-.2V80c0-.1.1-.2.2-.2h3.2c.1 0 .2.1.2.2v.6c0 .1-.1.2-.2.2zM79.1 75.6h-3.2c-.1 0-.2-.1-.2-.2v-.6c0-.1.1-.2.2-.2h3.2c.1 0 .2.1.2.2v.6c0 .1-.1.2-.2.2zM93.4 72.8h-2.3c-.1 0-.2-.1-.2-.2v-.7c0-.1.1-.2.2-.2h2.3c.1 0 .2.1.2.2v.7c.1 0 0 .2-.2.2zM65.8 90.8H64c-.1 0-.2-.1-.2-.2V90c0-.1.1-.2.2-.2h1.8c.1 0 .2.1.2.2v.6c0 .1-.1.2-.2.2zM83.7 112.8h-1.8c-.1 0-.2-.1-.2-.2v-.6c0-.1.1-.2.2-.2h1.8c.1 0 .2.1.2.2v.6c0 .1-.1.2-.2.2zM87.7 63.7h-1.6c-.1 0-.2-.1-.2-.2V63c0-.1.1-.2.2-.2h1.6c.1 0 .2.1.2.2v.5c0 .1-.1.2-.2.2zM79.7 65.9h-3.2c-.1 0-.2-.1-.2-.2v-.6c0-.1.1-.2.2-.2h3.2c.1 0 .2.1.2.2v.6c0 .1-.1.2-.2.2z"/><path clip-path="url(#b)" fill="#65BF8E" d="M65 67.4l-.2-.1c-.1-.1-.1-.2 0-.3l.5-.5h.3c.1.1.1.2 0 .3l-.5.5-.1.1z"/><path clip-path="url(#b)" fill="#65BF8E" d="M66 67.4l-.2-.1-.5-.5c-.1-.1-.1-.2 0-.3h.3l.5.5c.1.1.1.2 0 .3l-.1.1zM68.7 67.7l-.2-.1v-.3l.5-.5c.1-.1.2-.1.3 0v.3l-.5.5-.1.1z"/><path clip-path="url(#b)" fill="#65BF8E" d="M69.7 67.7l-.2-.1-.5-.4v-.3c.1-.1.2-.1.3 0l.5.5v.3h-.1zM64.9 71.4l-.2-.1c-.1-.1-.1-.2 0-.3l.5-.5h.3c.1.1.1.2 0 .3l-.5.5-.1.1z"/><path clip-path="url(#b)" fill="#65BF8E" d="M65.9 71.4l-.2-.1-.5-.5c-.1-.1-.1-.2 0-.3h.3l.5.5c.1.1.1.2 0 .3l-.1.1zM68.4 71.2l-.2-.1v-.3l.5-.5c.1-.1.2-.1.3 0v.3l-.5.5-.1.1z"/><path clip-path="url(#b)" fill="#65BF8E" d="M69.4 71.2l-.2-.1-.5-.5v-.3c.1-.1.2-.1.3 0l.5.5v.3l-.1.1zM70.9 69.7l-.2-.1v-.3l.5-.5c.1-.1.2-.1.3 0v.3l-.5.5-.1.1z"/><path clip-path="url(#b)" fill="#65BF8E" d="M71.9 69.7l-.2-.1-.5-.5v-.3c.1-.1.2-.1.3 0l.5.5v.3l-.1.1zM66.5 69.3l-.2-.1v-.3l.5-.5c.1-.1.2-.1.3 0v.3l-.5.5-.1.1z"/><path clip-path="url(#b)" fill="#65BF8E" d="M67.5 69.3l-.2-.1-.5-.5v-.3c.1-.1.2-.1.3 0l.5.5v.3l-.1.1zM63.2 69.3H63V69l.5-.5c.1-.1.2-.1.3 0v.3l-.5.5h-.1z"/><path clip-path="url(#b)" fill="#65BF8E" d="M64.2 69.3l-.2-.1-.5-.5v-.3c.1-.1.2-.1.3 0l.5.5v.3l-.1.1zM67.1 73.3l-.1-.1v-.3l.5-.5c.1-.1.2-.1.3 0v.3l-.5.5-.2.1z"/><path clip-path="url(#b)" fill="#65BF8E" d="M68.1 73.3l-.1-.1-.5-.5v-.3c.1-.1.2-.1.3 0l.5.5v.3l-.2.1zM70.8 73.6l-.2-.1c-.1-.1-.1-.2 0-.3l.5-.5h.3c.1.1.1.2 0 .3l-.4.5-.2.1z"/><path clip-path="url(#b)" fill="#65BF8E" d="M71.8 73.6l-.2-.1-.5-.5c-.1-.1-.1-.2 0-.3h.3l.5.5c.1.1.1.2 0 .3l-.1.1zM67.1 77.3l-.2-.1v-.3l.5-.5c.1-.1.2-.1.3 0v.3l-.5.5-.1.1z"/><path clip-path="url(#b)" fill="#65BF8E" d="M68.1 77.3l-.2-.1-.5-.5v-.3c.1-.1.2-.1.3 0l.5.5v.3l-.1.1zM70.6 77.1l-.2-.1v-.3l.5-.5c.1-.1.2-.1.3 0v.3l-.4.5-.2.1z"/><path clip-path="url(#b)" fill="#65BF8E" d="M71.6 77.1l-.2-.1-.5-.5v-.3c.1-.1.2-.1.3 0l.5.5v.3l-.1.1zM68.7 75.2l-.2-.1v-.3l.5-.5c.1-.1.2-.1.3 0v.3l-.5.5-.1.1z"/><path clip-path="url(#b)" fill="#65BF8E" d="M69.7 75.2l-.2-.1-.5-.5v-.3c.1-.1.2-.1.3 0l.5.5v.3l-.1.1zM65.4 75.2l-.2-.1c-.1-.1-.1-.2 0-.3l.5-.5h.3c.1.1.1.2 0 .3l-.5.5-.1.1z"/><path clip-path="url(#b)" fill="#65BF8E" d="M66.4 75.2l-.2-.1-.5-.5c-.1-.1-.1-.2 0-.3h.3l.5.5c.1.1.1.2 0 .3l-.1.1zM88.6 107.2l-.2-.1v-.3l.5-.5c.1-.1.2-.1.3 0v.3l-.5.5-.1.1z"/><path clip-path="url(#b)" fill="#65BF8E" d="M89.6 107.2l-.2-.1-.5-.5v-.3c.1-.1.2-.1.3 0l.5.5v.3l-.1.1zM92.2 107.5l-.2-.1c-.1-.1-.1-.2 0-.3l.5-.5h.3c.1.1.1.2 0 .3l-.5.5-.1.1z"/><path clip-path="url(#b)" fill="#65BF8E" d="M93.2 107.5l-.2-.1-.5-.5c-.1-.1-.1-.2 0-.3h.3l.5.5c.1.1.1.2 0 .3l-.1.1zM88.5 111.2l-.2-.1v-.3l.5-.5c.1-.1.2-.1.3 0v.3l-.5.5-.1.1z"/><path clip-path="url(#b)" fill="#65BF8E" d="M89.5 111.2l-.2-.1-.5-.5v-.3c.1-.1.2-.1.3 0l.5.5v.3l-.1.1zM92 111l-.2-.1v-.3l.5-.5c.1-.1.2-.1.3 0v.3l-.5.5-.1.1z"/><path clip-path="url(#b)" fill="#65BF8E" d="M93 111l-.2-.1-.5-.5v-.3c.1-.1.2-.1.3 0l.5.5v.3l-.1.1zM94.5 109.5l-.2-.1c-.1-.1-.1-.2 0-.3l.5-.5h.3c.1.1.1.2 0 .3l-.5.5-.1.1z"/><path clip-path="url(#b)" fill="#65BF8E" d="M95.5 109.5l-.2-.1-.5-.5c-.1-.1-.1-.2 0-.3h.3l.5.5c.1.1.1.2 0 .3l-.1.1zM90.1 109.1l-.2-.1v-.3l.5-.5c.1-.1.2-.1.3 0v.3l-.5.5-.1.1z"/><path clip-path="url(#b)" fill="#65BF8E" d="M91.1 109.1l-.2-.1-.5-.5v-.3c.1-.1.2-.1.3 0l.5.5v.3l-.1.1zM86.8 109.1l-.2-.1c-.1-.1-.1-.2 0-.3l.5-.5h.3c.1.1.1.2 0 .3l-.5.5-.1.1z"/><path clip-path="url(#b)" fill="#65BF8E" d="M87.8 109.1l-.2-.1-.5-.5c-.1-.1-.1-.2 0-.3h.3l.5.5c.1.1.1.2 0 .3l-.1.1zM90.7 113.1l-.2-.1v-.3l.5-.5c.1-.1.2-.1.3 0v.3l-.5.5-.1.1z"/><path clip-path="url(#b)" fill="#65BF8E" d="M91.7 113.1l-.2-.1-.5-.5v-.3c.1-.1.2-.1.3 0l.5.5v.3l-.1.1zM94.4 113.4l-.2-.1v-.3l.5-.5c.1-.1.2-.1.3 0v.3l-.5.5-.1.1z"/><path clip-path="url(#b)" fill="#65BF8E" d="M95.4 113.4l-.2-.1-.5-.5v-.3c.1-.1.2-.1.3 0l.5.5v.3l-.1.1zM90.7 117.1l-.2-.1v-.3l.5-.5c.1-.1.2-.1.3 0v.3l-.5.5-.1.1z"/><path clip-path="url(#b)" fill="#65BF8E" d="M91.7 117.1l-.2-.1-.5-.5v-.3c.1-.1.2-.1.3 0l.5.5v.3l-.1.1zM94.2 116.9l-.2-.1v-.3l.5-.5c.1-.1.2-.1.3 0v.3l-.5.5-.1.1z"/><path clip-path="url(#b)" fill="#65BF8E" d="M95.2 116.9l-.2-.1-.5-.5v-.3c.1-.1.2-.1.3 0l.5.5v.3l-.1.1zM92.3 115l-.2-.1c-.1-.1-.1-.2 0-.3l.5-.5h.3c.1.1.1.2 0 .3l-.5.5-.1.1z"/><path clip-path="url(#b)" fill="#65BF8E" d="M93.3 115l-.2-.1-.5-.5c-.1-.1-.1-.2 0-.3h.3l.5.5c.1.1.1.2 0 .3l-.1.1zM88.9 115l-.2-.1v-.3l.5-.5c.1-.1.2-.1.3 0v.3l-.5.5-.1.1z"/><path clip-path="url(#b)" fill="#65BF8E" d="M89.9 115l-.2-.1-.5-.5v-.3c.1-.1.2-.1.3 0l.5.5v.3l-.1.1z"/><path clip-path="url(#b)" fill="#FFF" d="M118.4 53.5c-1 0-1.9-.8-2-2.1v-.2c.3-1 1.1-1.5 1.9-1.5 1 0 1.9.8 2 2.1v.2c-.3 1.1-1.1 1.5-1.9 1.5m-.9-6.4h-.2c-.2.1-.4.3-.4.5 0 .5-.3.9-.6 1.1-.3.2-.6.3-.9.3h-.4-.1c-.2 0-.4.1-.5.2l-.1.1c-.1.2-.1.4.1.6.3.3.4.7.3 1.1-.1.4-.2.8-.6 1-.2.1-.3.4-.2.6v.1c.1.2.3.4.5.4.4 0 .8.2 1.1.5.3.4.3.8.2 1.3 0 .2 0 .5.2.6l.1.1c.1 0 .2.1.3.1.1 0 .3 0 .4-.1.3-.2.5-.3.9-.3h.3c.4.1.7.3 1 .6.1.2.3.3.5.3h.2c.2-.1.4-.3.4-.5 0-.5.3-.9.6-1.1.3-.2.6-.3.9-.3h.5c.2 0 .4-.1.5-.2l.1-.1c.1-.2.1-.4-.1-.6-.3-.3-.4-.7-.3-1.1.1-.4.2-.8.6-1 .2-.1.3-.4.2-.6v-.1c-.1-.2-.3-.4-.5-.4-.4 0-.8-.2-1.1-.5-.3-.3-.3-.8-.2-1.2.1-.2 0-.5-.2-.6l-.1-.1c-.1 0-.2-.1-.3-.1-.1 0-.2 0-.4.1-.2.2-.5.3-.8.3h-.3c-.4-.1-.7-.3-1-.6-.2-.3-.4-.4-.6-.4M112.9 59.5c-.7 0-1.3-.5-1.3-1.4V58c.2-.7.8-1 1.3-1 .7 0 1.3.5 1.3 1.4v.1c-.2.7-.7 1-1.3 1m-.5-4.3c-.1 0-.1 0 0 0h-.2c-.1 0-.3.2-.3.3 0 .3-.2.6-.4.8-.2.1-.4.2-.6.2h-.3-.1c-.1 0-.2.1-.3.2v.1c-.1.1-.1.3 0 .4.2.2.3.5.2.8 0 .3-.1.5-.4.7l3.5 2.7c.1 0 .3-.2.3-.3 0-.3.2-.6.4-.8.2-.1.4-.2.6-.2h.4c.1 0 .2-.1.3-.2v-.1c.1-.1.1-.3 0-.4-.2-.2-.3-.5-.2-.8 0-.3.2-.6.4-.7.1-.1.2-.2.1-.4v-.1c0-.2-.2-.3-.3-.3-.3 0-.6-.1-.7-.4-.2-.2-.2-.5-.1-.8 0-.2 0-.3-.2-.4H114.2c-.1 0-.2 0-.2.1-.2.1-.4.2-.6.2h-.2c-.3 0-.5-.2-.7-.4.1-.2 0-.2-.1-.2"/><path clip-path="url(#b)" fill="#377AA8" d="M109.1 65.5c0 .1 0 .1 0 0-.2.1-.2.3-.2.4v.1c0 .2.2.3.3.3.3 0 .6.1.7.4.2.2.2.6.2.9 0 .1 0 .3.2.4H110.6c.1 0 .2 0 .2-.1.2-.1.4-.2.6-.2h.2c.3 0 .5.2.7.4.1.1.2.2.3.2h.2l-3.7-2.8"/><path clip-path="url(#b)" fill="#FFF" d="M103.6 41.6h-.2c-.1 0-.2.1-.4.1-.3.1-.6.4-.6.7-.1.9-.5 1.6-1.1 2.1-.5.3-1 .5-1.6.5-.3 0-.5 0-.8-.1h-.2c-.1 0-.3 0-.4.1l2.6 3.1.5.8v-.1c.6-1.8 2-2.7 3.4-2.7 1.7 0 3.4 1.3 3.5 3.8v.3c-.6 1.8-2 2.7-3.4 2.7-.3 0-.6 0-.9-.1l1.5 2.3 2 1.5c.1-.8.5-1.5 1.1-2 .5-.3 1-.5 1.6-.5.3 0 .5 0 .8.1h.2c.3 0 .5-.1.7-.4.1-.1.1-.2.2-.3.2-.3.1-.7-.1-1-.5-.6-.7-1.2-.5-2 .1-.8.4-1.5 1.1-1.9.3-.2.4-.5.3-.9 0-.1-.1-.2-.1-.4-.1-.4-.4-.6-.8-.6-.8 0-1.5-.3-1.9-1s-.5-1.4-.3-2.1c.1-.4 0-.7-.3-.9-.1-.1-.2-.1-.3-.2-.1-.1-.3-.1-.4-.1-.2 0-.3.1-.5.2-.5.4-1 .5-1.6.5h-.6c-.8-.1-1.3-.5-1.7-1.1-.2-.2-.5-.4-.8-.4"/><path clip-path="url(#b)" fill="#E6E8E9" d="M98.1 50.1c-.1.2-.3.3-.5.5-.3.2-.4.5-.3.9 0 .1.1.2.1.4s.1.3.3.4l.5-.5c.4-.6.3-1.3-.1-1.7"/><path clip-path="url(#b)" fill="#297CAA" d="M103.7 49.6l-3.9 12.8 17.4 10v-9.3"/><path clip-path="url(#b)" fill="#11364F" d="M100.8 47.7l-5.4-6.5H47.1c-2 0-3.9 1.7-3.9 3.7v2.7l57.6.1z"/><circle clip-path="url(#b)" fill="#FFF" cx="47.7" cy="44.7" r="1.2"/><circle clip-path="url(#b)" fill="#3786BC" cx="51.4" cy="44.7" r="1.2"/><circle clip-path="url(#b)" fill="#8689CA" cx="55.1" cy="44.7" r="1.2"/><path clip-path="url(#b)" fill="#489DCC" d="M103 63.1c-4.2 0-7.7-3.4-7.7-7.6V41.3l21.9 21.9-14.2-.1z"/></svg>